SplineFontDB: 3.0
FontName: Oxygen-Sans-Bold
FullName: Oxygen-Sans Bold
FamilyName: Oxygen-Sans Bold
Weight: Bold
Version: 0.004;PS (version unavailable);hotconv 1.0.70;makeotf.lib2.5.5900
ItalicAngle: 0
UnderlinePosition: 0
UnderlineWidth: 0
Ascent: 1638
Descent: 410
sfntRevision: 0x00000106
LayerCount: 2
Layer: 0 1 "Back"  1
Layer: 1 1 "Fore"  0
XUID: [1021 848 1411038578 7514509]
FSType: 4
OS2Version: 3
OS2_WeightWidthSlopeOnly: 0
OS2_UseTypoMetrics: 1
CreationTime: 1379335621
ModificationTime: 1379370858
PfmFamily: 81
TTFWeight: 700
TTFWidth: 5
LineGap: 0
VLineGap: 0
Panose: 0 0 0 0 0 0 0 0 0 0
OS2TypoAscent: 2356
OS2TypoAOffset: 0
OS2TypoDescent: -664
OS2TypoDOffset: 0
OS2TypoLinegap: 0
OS2WinAscent: 2356
OS2WinAOffset: 0
OS2WinDescent: 664
OS2WinDOffset: 0
HheadAscent: 2356
HheadAOffset: 0
HheadDescent: -664
HheadDOffset: 0
OS2SubXSize: 1331
OS2SubYSize: 1228
OS2SubXOff: 0
OS2SubYOff: 153
OS2SupXSize: 1331
OS2SupYSize: 1228
OS2SupXOff: 0
OS2SupYOff: 716
OS2StrikeYSize: 0
OS2StrikeYPos: 634
OS2Vendor: 'newt'
OS2CodePages: 20000197.00000000
OS2UnicodeRanges: 0000000f.00000000.00000000.00000000
MarkAttachClasses: 1
DEI: 91125
ShortTable: cvt  2
  68
  1297
EndShort
ShortTable: maxp 16
  1
  0
  129
  85
  5
  0
  0
  2
  0
  1
  1
  0
  64
  0
  0
  0
EndShort
LangName: 1033 "" "" "Regular" "0.004;newt;Oxygen-Sans-Bold" "" "Version 0.004;PS (version unavailable);hotconv 1.0.70;makeotf.lib2.5.5900" "" "" "" "" "" "" "" "" "" "" "Oxygen-Sans" "Bold" 
GaspTable: 1 65535 2 0
Encoding: UnicodeBmp
Compacted: 1
UnicodeInterp: none
NameList: AGL For New Fonts
DisplaySize: -72
AntiAlias: 1
FitToEm: 1
WinInfo: 0 17 8
BeginChars: 65538 129

StartChar: .notdef
Encoding: 65536 -1 0
Width: 748
Flags: W
LayerCount: 2
Fore
SplineSet
68 0 m 1,0,-1
 68 1365 l 1,1,-1
 612 1365 l 1,2,-1
 612 0 l 1,3,-1
 68 0 l 1,0,-1
136 68 m 1,4,-1
 544 68 l 1,5,-1
 544 1297 l 1,6,-1
 136 1297 l 1,7,-1
 136 68 l 1,4,-1
EndSplineSet
EndChar

StartChar: exclam
Encoding: 33 33 4
Width: 613
Flags: W
LayerCount: 2
UndoRedoHistory
Layer: 1
Undoes
EndUndoes
Redoes
EndRedoes
EndUndoRedoHistory
Fore
SplineSet
263 439 m 1,0,-1
 198 1298 l 1,1,-1
 198 1480 l 1,2,-1
 419 1480 l 1,3,-1
 419 1298 l 1,4,-1
 361 439 l 1,5,-1
 263 439 l 1,0,-1
308 -10 m 128,-1,7
 246 -10 246 -10 207 31.5 c 128,-1,8
 168 73 168 73 168 130 c 128,-1,9
 168 187 168 187 207 228 c 128,-1,10
 246 269 246 269 308 269 c 128,-1,11
 370 269 370 269 408.5 228 c 128,-1,12
 447 187 447 187 447 130 c 128,-1,13
 447 73 447 73 408.5 31.5 c 128,-1,6
 370 -10 370 -10 308 -10 c 128,-1,7
EndSplineSet
EndChar

StartChar: quotedbl
Encoding: 34 34 5
Width: 763
Flags: W
LayerCount: 2
Fore
SplineSet
146 903 m 1,0,-1
 102 1460 l 1,1,-1
 329 1460 l 1,2,-1
 280 903 l 1,3,-1
 146 903 l 1,0,-1
478 903 m 1,4,-1
 433 1460 l 1,5,-1
 661 1460 l 1,6,-1
 611 903 l 1,7,-1
 478 903 l 1,4,-1
EndSplineSet
EndChar

StartChar: numbersign
Encoding: 35 35 6
Width: 1227
Flags: W
LayerCount: 2
Fore
SplineSet
723 554 m 1,0,-1
 801 958 l 1,1,-1
 562 958 l 1,2,-1
 484 554 l 1,3,-1
 723 554 l 1,0,-1
616 -9 m 1,4,-1
 702 442 l 1,5,-1
 462 442 l 1,6,-1
 376 -9 l 1,7,-1
 236 -9 l 1,8,-1
 322 442 l 1,9,-1
 140 442 l 1,10,-1
 156 554 l 1,11,-1
 343 554 l 1,12,-1
 421 958 l 1,13,-1
 227 958 l 1,14,-1
 243 1070 l 1,15,-1
 442 1070 l 1,16,-1
 514 1448 l 1,17,-1
 656 1448 l 1,18,-1
 583 1070 l 1,19,-1
 823 1070 l 1,20,-1
 895 1448 l 1,21,-1
 1036 1448 l 1,22,-1
 963 1070 l 1,23,-1
 1142 1070 l 1,24,-1
 1125 958 l 1,25,-1
 942 958 l 1,26,-1
 865 554 l 1,27,-1
 1054 554 l 1,28,-1
 1038 442 l 1,29,-1
 843 442 l 1,30,-1
 756 -9 l 1,31,-1
 616 -9 l 1,4,-1
EndSplineSet
EndChar

StartChar: dollar
Encoding: 36 36 7
Width: 1167
Flags: W
LayerCount: 2
UndoRedoHistory
Layer: 1
Undoes
EndUndoes
Redoes
EndRedoes
EndUndoRedoHistory
Fore
SplineSet
659 -278 m 1,0,-1
 493 -278 l 1,1,-1
 541 -21 l 1,2,3
 295.831325301 -16.6987951807 295.831325301 -16.6987951807 118 90 c 1,4,-1
 146 303 l 1,5,6
 242 244 242 244 358.5 212 c 128,-1,7
 475 180 475 180 578.5 181 c 128,-1,8
 682 182 682 182 752 234 c 128,-1,9
 822 286 822 286 822 375.5 c 128,-1,10
 822 465 822 465 783.5 504.5 c 128,-1,11
 745 544 745 544 655.829446064 582.67638484 c 128,-1,12
 566.658892128 621.352769679 566.658892128 621.352769679 432.908816694 672.541070154 c 128,-1,13
 299.158741259 723.729370629 299.158741259 723.729370629 228.432600254 771.266612944 c 0,14,15
 87 866.327868852 87 866.327868852 87 1075.03401317 c 128,-1,16
 87 1283.74015748 87 1283.74015748 216.21384404 1378.36131886 c 128,-1,17
 345.42768808 1472.98248025 345.42768808 1472.98248025 542 1479 c 1,18,-1
 556 1735 l 1,19,-1
 718 1735 l 1,20,-1
 673 1475 l 1,21,22
 857 1459 857 1459 1019 1379 c 1,23,-1
 940 1196 l 1,24,25
 867 1238 867 1238 763 1261 c 128,-1,26
 659 1284 659 1284 560.5 1281.5 c 128,-1,27
 462 1279 462 1279 392.5 1232 c 128,-1,28
 323 1185 323 1185 323 1106.5 c 128,-1,29
 323 1028 323 1028 351 991 c 128,-1,30
 379 954 379 954 452.737397421 921.041617819 c 128,-1,31
 526.474794842 888.083235639 526.474794842 888.083235639 680.342819108 829.775352759 c 128,-1,32
 834.210843373 771.46746988 834.210843373 771.46746988 897 732 c 0,33,34
 1066.29140001 625.58826285 1066.29140001 625.58826285 1063.53496879 415.815675088 c 128,-1,35
 1060.77853756 206.043087326 1060.77853756 206.043087326 949.262614148 108.72009962 c 128,-1,36
 837.746690734 11.3971119134 837.746690734 11.3971119134 669 -13 c 1,37,-1
 659 -278 l 1,0,-1
EndSplineSet
EndChar

StartChar: percent
Encoding: 37 37 8
Width: 1855
Flags: W
LayerCount: 2
UndoRedoHistory
Layer: 1
Undoes
EndUndoes
Redoes
EndRedoes
EndUndoRedoHistory
Fore
SplineSet
703.5 1372.5 m 128,-1,1
 798 1265 798 1265 798 1093 c 128,-1,2
 798 921 798 921 702 811 c 128,-1,3
 606 701 606 701 433.5 701 c 128,-1,4
 261 701 261 701 166.5 810.5 c 128,-1,5
 72 920 72 920 72 1091.5 c 128,-1,6
 72 1263 72 1263 167.5 1371.5 c 128,-1,7
 263 1480 263 1480 436 1480 c 128,-1,0
 609 1480 609 1480 703.5 1372.5 c 128,-1,1
604 0 m 1,8,-1
 412 0 l 1,9,-1
 1255 1460 l 1,10,-1
 1438 1460 l 1,11,-1
 604 0 l 1,8,-1
293 1272.5 m 128,-1,13
 246 1205 246 1205 246 1093 c 128,-1,14
 246 981 246 981 293 913 c 128,-1,15
 340 845 340 845 436 845 c 128,-1,16
 532 845 532 845 578.5 913.5 c 128,-1,17
 625 982 625 982 625 1095 c 128,-1,18
 625 1208 625 1208 579 1274 c 128,-1,19
 533 1340 533 1340 436.5 1340 c 128,-1,12
 340 1340 340 1340 293 1272.5 c 128,-1,13
1688.5 651.5 m 128,-1,21
 1783 544 1783 544 1783 372 c 128,-1,22
 1783 200 1783 200 1687 90 c 128,-1,23
 1591 -20 1591 -20 1418.5 -20 c 128,-1,24
 1246 -20 1246 -20 1151.5 89.5 c 128,-1,25
 1057 199 1057 199 1057 370.5 c 128,-1,26
 1057 542 1057 542 1152.5 650.5 c 128,-1,27
 1248 759 1248 759 1421 759 c 128,-1,20
 1594 759 1594 759 1688.5 651.5 c 128,-1,21
1278 551.5 m 128,-1,29
 1231 484 1231 484 1231 372 c 128,-1,30
 1231 260 1231 260 1278 192 c 128,-1,31
 1325 124 1325 124 1421 124 c 128,-1,32
 1517 124 1517 124 1563.5 192.5 c 128,-1,33
 1610 261 1610 261 1610 374 c 128,-1,34
 1610 487 1610 487 1564 553 c 128,-1,35
 1518 619 1518 619 1421.5 619 c 128,-1,28
 1325 619 1325 619 1278 551.5 c 128,-1,29
EndSplineSet
EndChar

StartChar: ampersand
Encoding: 38 38 9
Width: 1414
Flags: W
LayerCount: 2
UndoRedoHistory
Layer: 1
Undoes
EndUndoes
Redoes
EndRedoes
EndUndoRedoHistory
Fore
SplineSet
599 895 m 1,0,1
 697 945 697 945 762 1015 c 128,-1,2
 827 1085 827 1085 827 1163 c 0,3,4
 827 1319 827 1319 660 1319 c 0,5,6
 578 1319 578 1319 525.5 1278 c 128,-1,7
 473 1237 473 1237 473 1162 c 0,8,9
 473 1021 473 1021 599 895 c 1,0,1
429 218.5 m 128,-1,11
 511 156 511 156 656 156 c 128,-1,12
 801 156 801 156 911 244 c 1,13,-1
 523 674 l 1,14,15
 347 572 347 572 347 401 c 0,16,10
 347 281 347 281 429 218.5 c 128,-1,11
850 10.5 m 128,-1,18
 765 -18 765 -18 626 -18 c 128,-1,19
 487 -18 487 -18 375 26 c 128,-1,20
 263 70 263 70 196 164 c 128,-1,21
 129 258 129 258 129 401.451807229 c 128,-1,22
 129 544.903614458 129 544.903614458 207.962521056 639.087826319 c 128,-1,23
 286.925042111 733.272038181 286.925042111 733.272038181 415 804 c 1,24,25
 265 971 265 971 265 1145 c 0,26,27
 265 1247 265 1247 319.5 1324 c 0,28,29
 427.084415584 1476 427.084415584 1476 655 1476 c 0,30,31
 805.23943662 1476 805.23943662 1476 918.11971831 1401.09813084 c 128,-1,32
 1031 1326.19626168 1031 1326.19626168 1031 1171 c 0,33,34
 1031 1087 1031 1087 982.5 1008.5 c 128,-1,35
 934 930 934 930 864.5 874.5 c 128,-1,36
 795 819 795 819 704 771 c 1,37,-1
 1057 381 l 1,38,39
 1136 470 1136 470 1206 613 c 1,40,-1
 1359 513 l 1,41,42
 1286 360 1286 360 1182 248 c 1,43,-1
 1365 61 l 1,44,-1
 1166 -16 l 1,45,-1
 1032 111 l 1,46,17
 935 39 935 39 850 10.5 c 128,-1,18
EndSplineSet
EndChar

StartChar: quotesingle
Encoding: 39 39 10
Width: 448
Flags: W
LayerCount: 2
Fore
SplineSet
167 855 m 1,0,-1
 120 1460 l 1,1,-1
 355 1460 l 1,2,-1
 293 855 l 1,3,-1
 167 855 l 1,0,-1
EndSplineSet
EndChar

StartChar: parenleft
Encoding: 40 40 11
Width: 727
Flags: W
LayerCount: 2
UndoRedoHistory
Layer: 1
Undoes
EndUndoes
Redoes
EndRedoes
EndUndoRedoHistory
Fore
SplineSet
459 -186 m 1,0,1
 188 195 188 195 188 689 c 0,2,3
 188 932 188 932 261 1154 c 128,-1,4
 334 1376 334 1376 458 1549 c 1,5,-1
 670 1549 l 1,6,7
 555 1377 555 1377 480.5 1149.5 c 128,-1,8
 406 922 406 922 406 692 c 0,9,10
 406 243 406 243 668 -186 c 1,11,-1
 459 -186 l 1,0,1
EndSplineSet
EndChar

StartChar: parenright
Encoding: 41 41 12
Width: 734
Flags: W
LayerCount: 2
UndoRedoHistory
Layer: 1
Undoes
EndUndoes
Redoes
EndRedoes
EndUndoRedoHistory
Fore
SplineSet
103 -186 m 1,0,1
 215 -20 215 -20 290.5 221 c 128,-1,2
 366 462 366 462 366 694 c 128,-1,3
 366 926 366 926 300.5 1130.5 c 128,-1,4
 235 1335 235 1335 104 1549 c 1,5,-1
 314 1549 l 1,6,7
 585 1160 585 1160 585 702 c 0,8,9
 585 448 585 448 510.5 213.5 c 128,-1,10
 436 -21 436 -21 314 -186 c 1,11,-1
 103 -186 l 1,0,1
EndSplineSet
EndChar

StartChar: asterisk
Encoding: 42 42 13
Width: 1148
Flags: W
LayerCount: 2
UndoRedoHistory
Layer: 1
Undoes
EndUndoes
Redoes
EndRedoes
EndUndoRedoHistory
Fore
SplineSet
933 640 m 1,0,-1
 754 534 l 1,1,-1
 571 864 l 1,2,-1
 398 535 l 1,3,-1
 216 640 l 1,4,-1
 452 948 l 1,5,-1
 109 1025 l 1,6,-1
 167 1223 l 1,7,-1
 504 1082 l 1,8,-1
 470 1469 l 1,9,-1
 678 1469 l 1,10,-1
 644 1082 l 1,11,-1
 983 1223 l 1,12,-1
 1041 1025 l 1,13,-1
 694 948 l 1,14,15
 863 729 863 729 933 640 c 1,0,-1
EndSplineSet
EndChar

StartChar: plus
Encoding: 43 43 14
Width: 1218
Flags: W
LayerCount: 2
UndoRedoHistory
Layer: 1
Undoes
EndUndoes
Redoes
EndRedoes
EndUndoRedoHistory
Fore
SplineSet
524 154 m 1,0,-1
 524 557 l 1,1,-1
 137 557 l 1,2,-1
 137 723 l 1,3,-1
 525 723 l 1,4,-1
 525 1123 l 1,5,-1
 698 1123 l 1,6,-1
 698 723 l 1,7,-1
 1081 723 l 1,8,-1
 1081 557 l 1,9,-1
 697 557 l 1,10,-1
 697 154 l 1,11,-1
 524 154 l 1,0,-1
EndSplineSet
EndChar

StartChar: comma
Encoding: 44 44 15
Width: 517
Flags: W
LayerCount: 2
UndoRedoHistory
Layer: 1
Undoes
EndUndoes
Redoes
EndRedoes
EndUndoRedoHistory
Fore
SplineSet
125 -352 m 1,0,1
 197 214 197 214 197 246 c 1,2,-1
 415 246 l 1,3,-1
 410 196 l 1,4,-1
 276 -352 l 1,5,-1
 125 -352 l 1,0,1
EndSplineSet
EndChar

StartChar: hyphen
Encoding: 45 45 16
Width: 813
Flags: W
LayerCount: 2
UndoRedoHistory
Layer: 1
Undoes
EndUndoes
Redoes
EndRedoes
EndUndoRedoHistory
Fore
SplineSet
116 467 m 1,0,-1
 116 648 l 1,1,-1
 697 648 l 1,2,-1
 697 467 l 1,3,-1
 116 467 l 1,0,-1
EndSplineSet
EndChar

StartChar: period
Encoding: 46 46 17
Width: 533
Flags: W
LayerCount: 2
UndoRedoHistory
Layer: 1
Undoes
EndUndoes
Redoes
EndRedoes
EndUndoRedoHistory
Fore
SplineSet
382 34.5 m 128,-1,1
 344 -6 344 -6 283.5 -6 c 128,-1,2
 223 -6 223 -6 184.5 34 c 128,-1,3
 146 74 146 74 146 130 c 128,-1,4
 146 186 146 186 184.5 227 c 128,-1,5
 223 268 223 268 283.5 268 c 128,-1,6
 344 268 344 268 382 227 c 128,-1,7
 420 186 420 186 420 130.5 c 128,-1,0
 420 75 420 75 382 34.5 c 128,-1,1
EndSplineSet
EndChar

StartChar: slash
Encoding: 47 47 18
Width: 934
Flags: W
LayerCount: 2
UndoRedoHistory
Layer: 1
Undoes
EndUndoes
Redoes
EndRedoes
EndUndoRedoHistory
Fore
SplineSet
78 -163 m 1,0,-1
 708 1444 l 1,1,-1
 893 1444 l 1,2,-1
 259 -163 l 1,3,-1
 78 -163 l 1,0,-1
EndSplineSet
EndChar

StartChar: zero
Encoding: 48 48 19
Width: 1217
Flags: W
LayerCount: 2
UndoRedoHistory
Layer: 1
Undoes
EndUndoes
Redoes
EndRedoes
EndUndoRedoHistory
Fore
SplineSet
850.5 39.5 m 128,-1,1
 747 -20 747 -20 624 -20 c 0,2,3
 293.863874346 -20 293.863874346 -20 161.684450275 284.17192768 c 0,4,5
 79 474.445783133 79 474.445783133 79 730 c 0,6,7
 79 1134.91935484 79 1134.91935484 266 1337 c 0,8,9
 398.328358209 1480 398.328358209 1480 611 1480 c 0,10,11
 745 1480 745 1480 847.5 1422 c 128,-1,12
 950 1364 950 1364 1012.5 1261 c 0,13,14
 1138 1054.176 1138 1054.176 1138 733.661170732 c 128,-1,15
 1138 413.146341463 1138 413.146341463 1015.5 204 c 0,16,0
 954 99 954 99 850.5 39.5 c 128,-1,1
611 180 m 0,17,18
 756 180 756 180 825 327 c 128,-1,19
 894 474 894 474 894 736 c 0,20,21
 894 1280 894 1280 611 1280 c 0,22,23
 514 1280 514 1280 448.5 1211 c 0,24,25
 325.066086635 1080.97038134 325.066086635 1080.97038134 324.033043317 732.737099067 c 128,-1,26
 323 384.503816794 323 384.503816794 447.5 250.5 c 0,27,28
 513 180 513 180 611 180 c 0,17,18
EndSplineSet
EndChar

StartChar: one
Encoding: 49 49 20
Width: 1217
Flags: W
LayerCount: 2
UndoRedoHistory
Layer: 1
Undoes
EndUndoes
Redoes
EndRedoes
EndUndoRedoHistory
Fore
SplineSet
1123 0 m 1,0,-1
 197 0 l 1,1,-1
 197 180 l 1,2,-1
 563 180 l 1,3,-1
 563 1248 l 1,4,5
 497 1211 497 1211 391 1178 c 128,-1,6
 285 1145 285 1145 202 1132 c 1,7,-1
 202 1313 l 1,8,9
 304 1338 304 1338 419.5 1379.5 c 128,-1,10
 535 1421 535 1421 590 1460 c 1,11,-1
 803 1460 l 1,12,-1
 803 180 l 1,13,-1
 1123 180 l 1,14,-1
 1123 0 l 1,0,-1
EndSplineSet
EndChar

StartChar: two
Encoding: 50 50 21
Width: 1217
Flags: W
LayerCount: 2
UndoRedoHistory
Layer: 1
Undoes
EndUndoes
Redoes
EndRedoes
EndUndoRedoHistory
Fore
SplineSet
1032 0 m 1,0,-1
 200 0 l 1,1,-1
 185 194 l 1,2,-1
 646 725 l 2,3,4
 740 833 740 833 779.5 902.5 c 128,-1,5
 819 972 819 972 819 1072 c 128,-1,6
 819 1172 819 1172 748.5 1226 c 128,-1,7
 678 1280 678 1280 582 1280 c 128,-1,8
 486 1280 486 1280 392 1246.5 c 128,-1,9
 298 1213 298 1213 236 1165 c 1,10,-1
 165 1354 l 1,11,12
 246 1411 246 1411 362 1446 c 128,-1,13
 478 1481 478 1481 580.5 1481 c 128,-1,14
 683 1481 683 1481 760 1459 c 128,-1,15
 837 1437 837 1437 902.5 1391 c 128,-1,16
 968 1345 968 1345 1007.5 1263 c 128,-1,17
 1047 1181 1047 1181 1049.5 1058 c 128,-1,18
 1052 935 1052 935 997 828 c 128,-1,19
 942 721 942 721 792 558 c 1,20,-1
 439 180 l 1,21,-1
 1047 180 l 1,22,-1
 1032 0 l 1,0,-1
EndSplineSet
EndChar

StartChar: three
Encoding: 51 51 22
Width: 1217
Flags: W
LayerCount: 2
UndoRedoHistory
Layer: 1
Undoes
EndUndoes
Redoes
EndRedoes
EndUndoRedoHistory
Fore
SplineSet
456 853 m 2,0,1
 830 853 830 853 830 1076.38461538 c 0,2,3
 830 1176 830 1176 761.5 1228 c 128,-1,4
 693 1280 693 1280 573 1280 c 0,5,6
 395 1280 395 1280 251 1187 c 1,7,-1
 173 1367 l 1,8,9
 355 1480 355 1480 576.5 1480 c 128,-1,10
 798 1480 798 1480 928 1375 c 128,-1,11
 1058 1270 1058 1270 1058 1099 c 0,12,13
 1058 853 1058 853 833 777 c 1,14,15
 965 738 965 738 1030.5 638.5 c 128,-1,16
 1096 539 1096 539 1096 401 c 128,-1,17
 1096 263 1096 263 1030.5 167.5 c 128,-1,18
 965 72 965 72 855 26 c 128,-1,19
 745 -20 745 -20 616.5 -20 c 0,20,21
 369.773584906 -20 369.773584906 -20 178 101 c 1,22,-1
 250 276 l 1,23,24
 412.285714286 180 412.285714286 180 610.5 180 c 0,25,26
 715 180 715 180 787 240 c 128,-1,27
 859 300 859 300 859 409 c 0,28,29
 859 578.990384615 859 578.990384615 700 632.5 c 0,30,31
 606.4 664 606.4 664 455 664 c 2,32,-1
 400 664 l 1,33,-1
 400 853 l 1,34,-1
 456 853 l 2,0,1
EndSplineSet
EndChar

StartChar: four
Encoding: 52 52 23
Width: 1217
Flags: W
LayerCount: 2
UndoRedoHistory
Layer: 1
Undoes
EndUndoes
Redoes
EndRedoes
EndUndoRedoHistory
Fore
SplineSet
742 0 m 1,0,-1
 742 342 l 1,1,-1
 107 342 l 1,2,-1
 107 520 l 1,3,-1
 700 1457 l 1,4,-1
 966 1457 l 1,5,-1
 966 522 l 1,6,-1
 1144 522 l 1,7,-1
 1130 342 l 1,8,-1
 966 342 l 1,9,-1
 966 0 l 1,10,-1
 742 0 l 1,0,-1
337 519 m 1,11,-1
 742 519 l 1,12,-1
 742 1195 l 1,13,-1
 337 519 l 1,11,-1
EndSplineSet
EndChar

StartChar: five
Encoding: 53 53 24
Width: 1217
Flags: W
LayerCount: 2
UndoRedoHistory
Layer: 1
Undoes
EndUndoes
Redoes
EndRedoes
EndUndoRedoHistory
Fore
SplineSet
589 -20 m 0,0,1
 461 -20 461 -20 338.5 24.5 c 128,-1,2
 216 69 216 69 155 111 c 1,3,-1
 234 274 l 1,4,5
 311.888888889 222.074074074 311.888888889 222.074074074 404.944444444 193.537037037 c 128,-1,6
 498 165 498 165 565 165 c 0,7,8
 711 165 711 165 794 245.5 c 128,-1,9
 877 326 877 326 877 456 c 128,-1,10
 877 586 877 586 810.5 661 c 128,-1,11
 744 736 744 736 615 736 c 128,-1,12
 486 736 486 736 388 632 c 1,13,-1
 217 657 l 1,14,-1
 259 1460 l 1,15,-1
 1055 1460 l 1,16,-1
 1039 1280 l 1,17,-1
 467 1280 l 1,18,-1
 437 848 l 1,19,20
 534 916 534 916 683 916 c 0,21,22
 877 916 877 916 994.5 788 c 128,-1,23
 1112 660 1112 660 1112 450.5 c 128,-1,24
 1112 241 1112 241 970 110.5 c 128,-1,25
 828 -20 828 -20 589 -20 c 0,0,1
EndSplineSet
EndChar

StartChar: six
Encoding: 54 54 25
Width: 1217
Flags: W
LayerCount: 2
UndoRedoHistory
Layer: 1
Undoes
EndUndoes
Redoes
EndRedoes
EndUndoRedoHistory
Fore
SplineSet
986.5 110.5 m 128,-1,1
 845 -19 845 -19 619.5 -19 c 128,-1,2
 394 -19 394 -19 254.5 112.5 c 128,-1,3
 115 244 115 244 115 447 c 0,4,5
 115 590.878787879 115 590.878787879 171.156521739 701.490118577 c 128,-1,6
 227.313043478 812.101449275 227.313043478 812.101449275 323 945 c 1,7,-1
 687 1460 l 1,8,-1
 957 1460 l 1,9,-1
 623 988 l 2,10,11
 597 951 597 951 529 860 c 1,12,13
 596 888 596 888 662 888 c 0,14,15
 859 888 859 888 993.5 763.5 c 128,-1,16
 1128 639 1128 639 1128 439.5 c 128,-1,0
 1128 240 1128 240 986.5 110.5 c 128,-1,1
415 236 m 128,-1,18
 485 159 485 159 616.5 159 c 128,-1,19
 748 159 748 159 822.5 238 c 128,-1,20
 897 317 897 317 897 442 c 128,-1,21
 897 567 897 567 826 642 c 128,-1,22
 755 717 755 717 625.5 717 c 128,-1,23
 496 717 496 717 420.5 645 c 128,-1,24
 345 573 345 573 345 443 c 128,-1,17
 345 313 345 313 415 236 c 128,-1,18
EndSplineSet
EndChar

StartChar: seven
Encoding: 55 55 26
Width: 1217
Flags: W
LayerCount: 2
UndoRedoHistory
Layer: 1
Undoes
EndUndoes
Redoes
EndRedoes
EndUndoRedoHistory
Fore
SplineSet
343 0 m 1,0,-1
 811 1266 l 1,1,-1
 186 1266 l 1,2,-1
 178 1457 l 1,3,-1
 1068 1457 l 1,4,-1
 1068 1298 l 1,5,-1
 588 0 l 1,6,-1
 343 0 l 1,0,-1
EndSplineSet
EndChar

StartChar: eight
Encoding: 56 56 27
Width: 1217
Flags: W
LayerCount: 2
UndoRedoHistory
Layer: 1
Undoes
EndUndoes
Redoes
EndRedoes
EndUndoRedoHistory
Fore
SplineSet
856.5 23 m 128,-1,1
 746 -20 746 -20 628.5 -20 c 128,-1,2
 511 -20 511 -20 421.5 5.5 c 128,-1,3
 332 31 332 31 262 79 c 128,-1,4
 192 127 192 127 151 203.5 c 128,-1,5
 110 280 110 280 110 396 c 128,-1,6
 110 512 110 512 184.5 614 c 128,-1,7
 259 716 259 716 385 769 c 1,8,9
 274 816 274 816 206.5 901.5 c 128,-1,10
 139 987 139 987 139 1106 c 128,-1,11
 139 1225 139 1225 203.5 1311 c 0,12,13
 330.25 1480 330.25 1480 609.74127907 1480 c 128,-1,14
 889.23255814 1480 889.23255814 1480 1015 1311 c 0,15,16
 1079 1225 1079 1225 1079 1108 c 0,17,18
 1079 881 1079 881 842 770 c 1,19,20
 961 720 961 720 1034 614 c 128,-1,21
 1107 508 1107 508 1107 378.5 c 128,-1,22
 1107 249 1107 249 1037 157.5 c 128,-1,0
 967 66 967 66 856.5 23 c 128,-1,1
611 835 m 1,23,24
 853 890 853 890 853 1109 c 0,25,26
 853 1202 853 1202 788 1255 c 128,-1,27
 723 1308 723 1308 611 1308 c 128,-1,28
 499 1308 499 1308 432 1254.5 c 128,-1,29
 365 1201 365 1201 365 1109 c 0,30,31
 365 891 365 891 611 835 c 1,23,24
611 159 m 0,32,33
 876 159 876 159 876 395 c 0,34,35
 876 507 876 507 804.5 583 c 128,-1,36
 733 659 733 659 611 689 c 1,37,38
 487 658 487 658 414.5 583 c 128,-1,39
 342 508 342 508 342 394 c 128,-1,40
 342 280 342 280 410.5 219.5 c 128,-1,41
 479 159 479 159 611 159 c 0,32,33
EndSplineSet
EndChar

StartChar: nine
Encoding: 57 57 28
Width: 1217
Flags: W
LayerCount: 2
UndoRedoHistory
Layer: 1
Undoes
EndUndoes
Redoes
EndRedoes
EndUndoRedoHistory
Fore
SplineSet
546 0 m 1,0,-1
 268 0 l 1,1,2
 645 490 645 490 726 595 c 1,3,4
 659 565 659 565 593 565 c 0,5,6
 464 565 464 565 358 620 c 128,-1,7
 252 675 252 675 189.5 778 c 128,-1,8
 127 881 127 881 127 1012 c 0,9,10
 127 1217 127 1217 268.5 1348.5 c 128,-1,11
 410 1480 410 1480 635 1480 c 128,-1,12
 860 1480 860 1480 1000.5 1346.5 c 128,-1,13
 1141 1213 1141 1213 1141 1009 c 0,14,15
 1141 866.242424242 1141 866.242424242 1086.91386555 761.348102878 c 128,-1,16
 1032.82773109 656.453781513 1032.82773109 656.453781513 935 521 c 1,17,-1
 546 0 l 1,0,-1
429.5 813 m 128,-1,19
 501 738 501 738 630.5 738 c 128,-1,20
 760 738 760 738 836 810 c 128,-1,21
 912 882 912 882 912 1013 c 128,-1,22
 912 1144 912 1144 842.5 1217 c 128,-1,23
 773 1290 773 1290 640.5 1290 c 128,-1,24
 508 1290 508 1290 433 1214.5 c 128,-1,25
 358 1139 358 1139 358 1013.5 c 128,-1,18
 358 888 358 888 429.5 813 c 128,-1,19
EndSplineSet
EndChar

StartChar: colon
Encoding: 58 58 29
Width: 605
Flags: W
LayerCount: 2
UndoRedoHistory
Layer: 1
Undoes
EndUndoes
Redoes
EndRedoes
EndUndoRedoHistory
Fore
SplineSet
410 842.5 m 128,-1,1
 372 802 372 802 311.5 802 c 128,-1,2
 251 802 251 802 212.5 842 c 128,-1,3
 174 882 174 882 174 938 c 128,-1,4
 174 994 174 994 212.5 1035 c 128,-1,5
 251 1076 251 1076 311.5 1076 c 128,-1,6
 372 1076 372 1076 410 1035 c 128,-1,7
 448 994 448 994 448 938.5 c 128,-1,0
 448 883 448 883 410 842.5 c 128,-1,1
411 34.5 m 128,-1,9
 373 -6 373 -6 312.5 -6 c 128,-1,10
 252 -6 252 -6 213.5 34 c 128,-1,11
 175 74 175 74 175 130 c 128,-1,12
 175 186 175 186 213.5 227 c 128,-1,13
 252 268 252 268 312.5 268 c 128,-1,14
 373 268 373 268 411 227 c 128,-1,15
 449 186 449 186 449 130.5 c 128,-1,8
 449 75 449 75 411 34.5 c 128,-1,9
EndSplineSet
EndChar

StartChar: semicolon
Encoding: 59 59 30
Width: 600
Flags: W
LayerCount: 2
UndoRedoHistory
Layer: 1
Undoes
EndUndoes
Redoes
EndRedoes
EndUndoRedoHistory
Fore
SplineSet
438 825.5 m 128,-1,1
 400 785 400 785 339.5 785 c 128,-1,2
 279 785 279 785 240.5 825 c 128,-1,3
 202 865 202 865 202 921 c 128,-1,4
 202 977 202 977 240.5 1018 c 128,-1,5
 279 1059 279 1059 339.5 1059 c 128,-1,6
 400 1059 400 1059 438 1018 c 128,-1,7
 476 977 476 977 476 921.5 c 128,-1,0
 476 866 476 866 438 825.5 c 128,-1,1
184 -306 m 1,8,-1
 238 229 l 1,9,-1
 445 229 l 1,10,-1
 321 -306 l 1,11,-1
 184 -306 l 1,8,-1
EndSplineSet
EndChar

StartChar: less
Encoding: 60 60 31
Width: 1157
Flags: W
LayerCount: 2
Fore
SplineSet
1046 162 m 1,0,-1
 107 613 l 1,1,-1
 107 726 l 1,2,-1
 1047 1208 l 1,3,-1
 1047 1022 l 1,4,-1
 343 675 l 1,5,-1
 1045 355 l 1,6,-1
 1046 162 l 1,0,-1
EndSplineSet
EndChar

StartChar: equal
Encoding: 61 61 32
Width: 1217
Flags: W
LayerCount: 2
Fore
SplineSet
143 851 m 1,0,-1
 143 1032 l 1,1,-1
 1074 1032 l 1,2,-1
 1074 851 l 1,3,-1
 143 851 l 1,0,-1
143 467 m 1,4,-1
 143 648 l 1,5,-1
 1074 648 l 1,6,-1
 1074 467 l 1,7,-1
 143 467 l 1,4,-1
EndSplineSet
EndChar

StartChar: greater
Encoding: 62 62 33
Width: 1161
Flags: W
LayerCount: 2
Fore
SplineSet
147 166 m 1,0,-1
 147 360 l 1,1,-1
 848 675 l 1,2,-1
 148 1025 l 1,3,-1
 148 1212 l 1,4,-1
 1088 725 l 1,5,-1
 1088 613 l 1,6,-1
 147 166 l 1,0,-1
EndSplineSet
EndChar

StartChar: question
Encoding: 63 63 34
Width: 971
Flags: W
LayerCount: 2
UndoRedoHistory
Layer: 1
Undoes
EndUndoes
Redoes
EndRedoes
EndUndoRedoHistory
Fore
SplineSet
117 1364 m 1,0,1
 249.280701754 1480 249.280701754 1480 451 1480 c 0,2,3
 611.146341463 1480 611.146341463 1480 728.073170732 1393.62162162 c 128,-1,4
 845 1307.24324324 845 1307.24324324 845 1141.43294238 c 128,-1,5
 845 975.622641509 845 975.622641509 723 826 c 0,6,7
 670 761 670 761 614.5 701.5 c 0,8,9
 469.079617142 545.598868827 469.079617142 545.598868827 433 439 c 1,10,-1
 331 439 l 1,11,12
 364.970588235 623.950980392 364.970588235 623.950980392 450.5 766.5 c 0,13,14
 485 824 485 824 517 876 c 0,15,16
 590 994.625 590 994.625 589.5 1082.3125 c 128,-1,17
 589 1170 589 1170 538 1216 c 128,-1,18
 487 1262 487 1262 402.5 1262 c 128,-1,19
 318 1262 318 1262 177 1180 c 1,20,-1
 117 1364 l 1,0,1
385 -10 m 128,-1,22
 324 -10 324 -10 285 31.5 c 128,-1,23
 246 73 246 73 246 130 c 128,-1,24
 246 187 246 187 284.5 228 c 128,-1,25
 323 269 323 269 384.5 269 c 128,-1,26
 446 269 446 269 483.5 228 c 128,-1,27
 521 187 521 187 521 130 c 128,-1,28
 521 73 521 73 483.5 31.5 c 128,-1,21
 446 -10 446 -10 385 -10 c 128,-1,22
EndSplineSet
EndChar

StartChar: at
Encoding: 64 64 35
Width: 1880
Flags: W
LayerCount: 2
UndoRedoHistory
Layer: 1
Undoes
EndUndoes
Redoes
EndRedoes
EndUndoRedoHistory
Fore
SplineSet
921 -151 m 0,0,1
 687 -151 687 -151 508 -56.5 c 128,-1,2
 329 38 329 38 228.5 217.5 c 128,-1,3
 128 397 128 397 128 638 c 0,4,5
 128 818 128 818 193 975.5 c 128,-1,6
 258 1133 258 1133 371 1245 c 128,-1,7
 484 1357 484 1357 644 1421.5 c 128,-1,8
 804 1486 804 1486 976 1486 c 128,-1,9
 1148 1486 1148 1486 1288 1435.5 c 128,-1,10
 1428 1385 1428 1385 1531 1294 c 128,-1,11
 1634 1203 1634 1203 1693 1068 c 128,-1,12
 1752 933 1752 933 1752 791 c 0,13,14
 1752 524.081081081 1752 524.081081081 1632.01209677 390.040540541 c 128,-1,15
 1512.02419355 256 1512.02419355 256 1376 256 c 0,16,17
 1281 256 1281 256 1221 311 c 128,-1,18
 1161 366 1161 366 1139 465 c 1,19,20
 1097 374 1097 374 1025.5 313 c 128,-1,21
 954 252 954 252 857 252 c 0,22,23
 711 252 711 252 632 348.5 c 128,-1,24
 553 445 553 445 553 583.5 c 128,-1,25
 553 722 553 722 603 833 c 128,-1,26
 653 944 653 944 756 1017.5 c 128,-1,27
 859 1091 859 1091 995 1091 c 0,28,29
 1069 1091 1069 1091 1161 1071 c 128,-1,30
 1253 1051 1253 1051 1316 1020 c 1,31,32
 1308 963 1308 963 1279.5 783.230769231 c 128,-1,33
 1251 603.461538462 1251 603.461538462 1251 528.230769231 c 128,-1,34
 1251 453 1251 453 1285.5 413.5 c 128,-1,35
 1320 374 1320 374 1376 374 c 0,36,37
 1471 374 1471 374 1540 481.5 c 128,-1,38
 1609 589 1609 589 1609 780 c 0,39,40
 1609 1013.76 1609 1013.76 1456 1179 c 0,41,42
 1381 1260 1381 1260 1258.5 1307.5 c 128,-1,43
 1136 1355 1136 1355 979.5 1355 c 128,-1,44
 823 1355 823 1355 690 1295.5 c 128,-1,45
 557 1236 557 1236 470.5 1136.5 c 0,46,47
 288 926.572254335 288 926.572254335 288 640.36474352 c 128,-1,48
 288 354.157232704 288 354.157232704 452.5 170 c 0,49,50
 532 81 532 81 653.5 30 c 128,-1,51
 775 -21 775 -21 924 -21 c 0,52,53
 1186 -21 1186 -21 1390 95 c 1,54,-1
 1433 -21 l 1,55,56
 1339 -84 1339 -84 1203.5 -117.5 c 128,-1,57
 1068 -151 1068 -151 921 -151 c 0,0,1
874 369 m 0,58,59
 1029.46315789 369 1029.46315789 369 1084 604.5 c 0,60,61
 1095.59459459 654.567567568 1095.59459459 654.567567568 1108.2972973 730.783783784 c 128,-1,62
 1121 807 1121 807 1131 866.5 c 128,-1,63
 1141 926 1141 926 1147 962 c 1,64,65
 1066 980 1066 980 993.5 980 c 128,-1,66
 921 980 921 980 851 924 c 0,67,68
 710 811.2 710 811.2 710 594 c 0,69,70
 710 489 710 489 752 429 c 128,-1,71
 794 369 794 369 874 369 c 0,58,59
EndSplineSet
EndChar

StartChar: A
Encoding: 65 65 36
Width: 1369
Flags: W
LayerCount: 2
UndoRedoHistory
Layer: 1
Undoes
EndUndoes
Redoes
EndRedoes
EndUndoRedoHistory
Fore
SplineSet
892 594 m 1,0,-1
 686 1253 l 1,1,-1
 474 594 l 1,2,-1
 892 594 l 1,0,-1
1099 0 m 1,3,-1
 947 424 l 1,4,-1
 419 424 l 1,5,-1
 275 0 l 1,6,-1
 30 0 l 1,7,-1
 539 1460 l 1,8,-1
 830 1460 l 1,9,-1
 1339 0 l 1,10,-1
 1099 0 l 1,3,-1
EndSplineSet
EndChar

StartChar: B
Encoding: 66 66 37
Width: 1324
Flags: W
LayerCount: 2
UndoRedoHistory
Layer: 1
Undoes
EndUndoes
Redoes
EndRedoes
EndUndoRedoHistory
Fore
SplineSet
967 781 m 1,0,1
 1238 693.446153846 1238 693.446153846 1238 427 c 0,2,3
 1238 243 1238 243 1136.5 143.5 c 128,-1,4
 1035 44 1035 44 799.5 9.5 c 128,-1,5
 564 -25 564 -25 150 0 c 1,6,-1
 150 1456 l 1,7,8
 835.753944186 1523.69244943 835.753944186 1523.69244943 1051 1384.5 c 0,9,10
 1126 1336 1126 1336 1159.5 1267 c 128,-1,11
 1193 1198 1193 1198 1193 1098 c 0,12,13
 1193 869 1193 869 967 781 c 1,0,1
952 1064 m 0,14,15
 952 1208 952 1208 826.5 1256 c 128,-1,16
 701 1304 701 1304 390 1283 c 1,17,-1
 390 854 l 1,18,-1
 677 854 l 2,19,20
 816 854 816 854 884 901 c 128,-1,21
 952 948 952 948 952 1064 c 0,14,15
654 684 m 2,22,-1
 390 684 l 1,23,-1
 390 176 l 1,24,25
 748.036827195 156.109065156 748.036827195 156.109065156 879 225.5 c 0,26,27
 946 261 946 261 973 311.5 c 128,-1,28
 1000 362 1000 362 1000 438 c 0,29,30
 1000 571 1000 571 917 627.5 c 128,-1,31
 834 684 834 684 654 684 c 2,22,-1
EndSplineSet
EndChar

StartChar: C
Encoding: 67 67 38
Width: 1326
Flags: W
LayerCount: 2
UndoRedoHistory
Layer: 1
Undoes
EndUndoes
Redoes
EndRedoes
EndUndoRedoHistory
Fore
SplineSet
1219 79 m 1,0,1
 1029.25 -20 1029.25 -20 815 -20 c 0,2,3
 496.620320856 -20 496.620320856 -20 300 171.5 c 0,4,5
 204 265 204 265 150 409 c 128,-1,6
 96 553 96 553 96 728 c 128,-1,7
 96 903 96 903 152.5 1044 c 128,-1,8
 209 1185 209 1185 306.5 1280 c 128,-1,9
 404 1375 404 1375 535.5 1427.5 c 128,-1,10
 667 1480 667 1480 817 1480 c 0,11,12
 1047 1480 1047 1480 1219 1372 c 1,13,-1
 1146 1192 l 1,14,15
 994 1280 994 1280 815.816793893 1280 c 128,-1,16
 637.633587786 1280 637.633587786 1280 498 1145.5 c 0,17,18
 430 1080 430 1080 390 972 c 128,-1,19
 350 864 350 864 350 729 c 0,20,21
 350 463 350 463 473 321.5 c 128,-1,22
 596 180 596 180 835 180 c 0,23,24
 992 180 992 180 1168 268 c 1,25,-1
 1219 79 l 1,0,1
EndSplineSet
EndChar

StartChar: D
Encoding: 68 68 39
Width: 1484
Flags: W
LayerCount: 2
UndoRedoHistory
Layer: 1
Undoes
EndUndoes
Redoes
EndRedoes
EndUndoRedoHistory
Fore
SplineSet
150 0 m 1,0,-1
 150 1456 l 1,1,2
 737.415889257 1515.33493831 737.415889257 1515.33493831 1023.5 1396.5 c 0,3,4
 1218.99663097 1315.29370714 1218.99663097 1315.29370714 1303.5 1156 c 128,-1,5
 1388 996.712643678 1388 996.712643678 1388 750 c 0,6,7
 1388 255.034722222 1388 255.034722222 973 85 c 0,8,9
 674.162886598 -37.4402061856 674.162886598 -37.4402061856 150 0 c 1,0,-1
1136 732.276376147 m 128,-1,11
 1136 934.25 1136 934.25 1090.01234568 1043.47067901 c 128,-1,12
 1044.02469136 1152.69135802 1044.02469136 1152.69135802 913.94229737 1229.21041331 c 128,-1,13
 783.859903382 1305.7294686 783.859903382 1305.7294686 390 1285 c 1,14,-1
 390 176 l 1,15,16
 861.913394739 153.119350558 861.913394739 153.119350558 1035.5 392 c 0,17,10
 1136 530.302752294 1136 530.302752294 1136 732.276376147 c 128,-1,11
EndSplineSet
EndChar

StartChar: E
Encoding: 69 69 40
Width: 1162
Flags: W
LayerCount: 2
Fore
SplineSet
1087 191 m 1,0,-1
 1079 0 l 1,1,-1
 150 0 l 1,2,-1
 150 1460 l 1,3,-1
 1070 1460 l 1,4,-1
 1057 1274 l 1,5,-1
 390 1274 l 1,6,-1
 390 854 l 1,7,-1
 1017 854 l 1,8,-1
 1017 667 l 1,9,-1
 390 667 l 1,10,-1
 390 191 l 1,11,-1
 1087 191 l 1,0,-1
EndSplineSet
EndChar

StartChar: F
Encoding: 70 70 41
Width: 1136
Flags: W
LayerCount: 2
Fore
SplineSet
1006 638 m 1,0,-1
 390 638 l 1,1,-1
 390 0 l 1,2,-1
 150 0 l 1,3,-1
 150 1460 l 1,4,-1
 1073 1460 l 1,5,-1
 1059 1267 l 1,6,-1
 390 1267 l 1,7,-1
 390 822 l 1,8,-1
 1006 822 l 1,9,-1
 1006 638 l 1,0,-1
EndSplineSet
EndChar

StartChar: G
Encoding: 71 71 42
Width: 1442
Flags: W
LayerCount: 2
UndoRedoHistory
Layer: 1
Undoes
EndUndoes
Redoes
EndRedoes
EndUndoRedoHistory
Fore
SplineSet
1306 81 m 1,0,1
 1063 -20 1063 -20 820.5 -20 c 128,-1,2
 578 -20 578 -20 419 75 c 128,-1,3
 260 170 260 170 178 339 c 128,-1,4
 96 508 96 508 96 703 c 128,-1,5
 96 898 96 898 151 1039.5 c 128,-1,6
 206 1181 206 1181 303 1277 c 128,-1,7
 400 1373 400 1373 535 1426.5 c 128,-1,8
 670 1480 670 1480 813.5 1480 c 128,-1,9
 957 1480 957 1480 1063 1453 c 128,-1,10
 1169 1426 1169 1426 1273 1367 c 1,11,-1
 1212 1179 l 1,12,13
 1115 1228 1115 1228 1031 1254 c 128,-1,14
 947 1280 947 1280 842 1280 c 0,15,16
 618 1280 618 1280 484 1130.5 c 128,-1,17
 350 981 350 981 350 726.5 c 128,-1,18
 350 472 350 472 465 326 c 128,-1,19
 580 180 580 180 815 180 c 0,20,21
 972 180 972 180 1078 222 c 1,22,-1
 1078 578 l 1,23,-1
 757 578 l 1,24,-1
 766 778 l 1,25,-1
 1306 778 l 1,26,-1
 1306 81 l 1,0,1
EndSplineSet
EndChar

StartChar: H
Encoding: 72 72 43
Width: 1484
Flags: W
LayerCount: 2
UndoRedoHistory
Layer: 1
Undoes
EndUndoes
Redoes
EndRedoes
EndUndoRedoHistory
Fore
SplineSet
1094 0 m 1,0,-1
 1094 655 l 1,1,-1
 390 655 l 1,2,-1
 390 0 l 1,3,-1
 150 0 l 1,4,-1
 150 1460 l 1,5,-1
 390 1460 l 1,6,-1
 390 843 l 1,7,-1
 1094 843 l 1,8,-1
 1094 1460 l 1,9,-1
 1334 1460 l 1,10,-1
 1334 0 l 1,11,-1
 1094 0 l 1,0,-1
EndSplineSet
EndChar

StartChar: I
Encoding: 73 73 44
Width: 961
Flags: W
LayerCount: 2
UndoRedoHistory
Layer: 1
Undoes
EndUndoes
Redoes
EndRedoes
EndUndoRedoHistory
Fore
SplineSet
804 0 m 1,0,-1
 156 0 l 1,1,-1
 156 150 l 1,2,-1
 362 150 l 1,3,-1
 362 1310 l 1,4,-1
 156 1310 l 1,5,-1
 156 1460 l 1,6,-1
 804 1460 l 1,7,-1
 804 1310 l 1,8,-1
 602 1310 l 1,9,-1
 602 150 l 1,10,-1
 804 150 l 1,11,-1
 804 0 l 1,0,-1
EndSplineSet
EndChar

StartChar: J
Encoding: 74 74 45
Width: 881
Flags: W
LayerCount: 2
UndoRedoHistory
Layer: 1
Undoes
EndUndoes
Redoes
EndRedoes
EndUndoRedoHistory
Fore
SplineSet
228 -209 m 1,0,-1
 116 -220 l 1,1,-1
 94 -31 l 1,2,-1
 219 -15 l 2,3,4
 364.660262892 4.16582406471 364.660262892 4.16582406471 424.830131446 58.1417355618 c 128,-1,5
 485 112.117647059 485 112.117647059 485 258 c 2,6,-1
 485 1460 l 1,7,-1
 725 1460 l 1,8,-1
 725 253 l 2,9,10
 725 -40.7063492063 725 -40.7063492063 549 -131.5 c 0,11,12
 436.125 -189.729166667 436.125 -189.729166667 228 -209 c 1,0,-1
EndSplineSet
EndChar

StartChar: K
Encoding: 75 75 46
Width: 1341
Flags: W
LayerCount: 2
UndoRedoHistory
Layer: 1
Undoes
EndUndoes
Redoes
EndRedoes
EndUndoRedoHistory
Fore
SplineSet
1038 0 m 1,0,-1
 525 680 l 1,1,-1
 390 546 l 1,2,-1
 390 0 l 1,3,-1
 150 0 l 1,4,-1
 150 1460 l 1,5,-1
 390 1460 l 1,6,-1
 390 774 l 1,7,-1
 1009 1460 l 1,8,-1
 1293 1460 l 1,9,-1
 714 806 l 1,10,-1
 1326 0 l 1,11,-1
 1038 0 l 1,0,-1
EndSplineSet
EndChar

StartChar: L
Encoding: 76 76 47
Width: 1057
Flags: W
LayerCount: 2
Fore
SplineSet
1030 0 m 1,0,-1
 150 0 l 1,1,-1
 150 1460 l 1,2,-1
 390 1460 l 1,3,-1
 390 180 l 1,4,-1
 1042 180 l 1,5,-1
 1030 0 l 1,0,-1
EndSplineSet
EndChar

StartChar: M
Encoding: 77 77 48
Width: 1819
Flags: W
LayerCount: 2
UndoRedoHistory
Layer: 1
Undoes
EndUndoes
Redoes
EndRedoes
EndUndoRedoHistory
Fore
SplineSet
388 690 m 1,0,-1
 376 0 l 1,1,-1
 150 0 l 1,2,-1
 186 1460 l 1,3,-1
 448 1460 l 1,4,-1
 913 482 l 1,5,-1
 1382 1460 l 1,6,-1
 1637 1460 l 1,7,-1
 1673 0 l 1,8,-1
 1447 0 l 1,9,-1
 1434 693 l 1,10,-1
 1434 1100 l 1,11,-1
 997 202 l 1,12,-1
 822 202 l 1,13,-1
 389 1107 l 1,14,-1
 388 690 l 1,0,-1
EndSplineSet
EndChar

StartChar: N
Encoding: 78 78 49
Width: 1528
Flags: W
LayerCount: 2
UndoRedoHistory
Layer: 1
Undoes
EndUndoes
Redoes
EndRedoes
EndUndoRedoHistory
Fore
SplineSet
378 583 m 1,0,-1
 378 0 l 1,1,-1
 150 0 l 1,2,-1
 150 1460 l 1,3,-1
 412 1460 l 1,4,-1
 1163 310 l 1,5,-1
 1152 771 l 1,6,-1
 1152 1460 l 1,7,-1
 1380 1460 l 1,8,-1
 1380 0 l 1,9,-1
 1108 0 l 1,10,-1
 363 1129 l 1,11,-1
 378 583 l 1,0,-1
EndSplineSet
EndChar

StartChar: O
Encoding: 79 79 50
Width: 1615
Flags: W
LayerCount: 2
UndoRedoHistory
Layer: 1
Undoes
EndUndoes
Redoes
EndRedoes
EndUndoRedoHistory
Fore
SplineSet
1327 181 m 128,-1,1
 1135 -20 1135 -20 809 -20 c 128,-1,2
 483 -20 483 -20 289.5 181 c 128,-1,3
 96 382 96 382 96 726.5 c 128,-1,4
 96 1071 96 1071 290.5 1275.5 c 128,-1,5
 485 1480 485 1480 810 1480 c 0,6,7
 1022 1480 1022 1480 1182.5 1388 c 128,-1,8
 1343 1296 1343 1296 1431 1124 c 128,-1,9
 1519 952 1519 952 1519 723 c 0,10,0
 1519 382 1519 382 1327 181 c 128,-1,1
809 180 m 128,-1,12
 1024 180 1024 180 1144.5 329 c 128,-1,13
 1265 478 1265 478 1265 725.5 c 128,-1,14
 1265 973 1265 973 1143.5 1126.5 c 128,-1,15
 1022 1280 1022 1280 809.5 1280 c 128,-1,16
 597 1280 597 1280 473.5 1126.5 c 128,-1,17
 350 973 350 973 350 726 c 128,-1,18
 350 479 350 479 472 329.5 c 128,-1,11
 594 180 594 180 809 180 c 128,-1,12
EndSplineSet
EndChar

StartChar: P
Encoding: 80 80 51
Width: 1249
Flags: W
LayerCount: 2
UndoRedoHistory
Layer: 1
Undoes
EndUndoes
Redoes
EndRedoes
EndUndoRedoHistory
Fore
SplineSet
390 810 m 1,0,1
 487.379361406 805.006186595 487.379361406 805.006186595 614.288530868 805.006186595 c 0,2,3
 836.961296713 805.006186595 836.961296713 805.006186595 921.3625 930.710106383 c 0,4,5
 952.725 977.420212766 952.725 977.420212766 952.725 1057.24625 c 0,6,7
 952.725 1262.52563559 952.725 1262.52563559 739.465667915 1282.40574282 c 0,8,9
 658 1290 658 1290 577 1290 c 128,-1,10
 496 1290 496 1290 390 1284 c 1,11,-1
 390 810 l 1,0,1
490.440243863 1475.65644797 m 2,12,-1
 613.178553704 1475.65238062 l 2,13,14
 841.94432683 1475.65238062 841.94432683 1475.65238062 987.256464313 1422.16103267 c 0,15,16
 1195 1346 1195 1346 1195 1093.5 c 0,17,18
 1195 875 1195 875 1097.5 777.5 c 0,19,20
 945.720220152 625.720220152 945.720220152 625.720220152 593.115055218 625.720220152 c 0,21,22
 458.875376808 625.720220152 458.875376808 625.720220152 390 629 c 1,23,-1
 390 0 l 1,24,-1
 150 0 l 1,25,-1
 150 1457 l 1,26,27
 374.859293949 1475.65644797 374.859293949 1475.65644797 490.440243863 1475.65644797 c 2,12,-1
EndSplineSet
EndChar

StartChar: Q
Encoding: 81 81 52
Width: 1615
Flags: W
LayerCount: 2
UndoRedoHistory
Layer: 1
Undoes
EndUndoes
Redoes
EndRedoes
EndUndoRedoHistory
Fore
SplineSet
1268 -494 m 1,0,1
 1185 -415 1185 -415 1076 -280 c 128,-1,2
 967 -145 967 -145 885 -17 c 1,3,4
 849 -20 849 -20 810 -20 c 0,5,6
 483 -20 483 -20 289.5 181 c 128,-1,7
 96 382 96 382 96 726.5 c 128,-1,8
 96 1071 96 1071 290.5 1275.5 c 128,-1,9
 485 1480 485 1480 810 1480 c 0,10,11
 1022 1480 1022 1480 1182.5 1388 c 128,-1,12
 1343 1296 1343 1296 1431 1124 c 128,-1,13
 1519 952 1519 952 1519 706.5 c 128,-1,14
 1519 461 1519 461 1402.5 278 c 128,-1,15
 1286 95 1286 95 1078 23 c 1,16,17
 1227 -165 1227 -165 1430 -349 c 1,18,-1
 1268 -494 l 1,0,1
809 180 m 128,-1,20
 1024 180 1024 180 1144.5 329 c 128,-1,21
 1265 478 1265 478 1265 725.5 c 128,-1,22
 1265 973 1265 973 1143.5 1126.5 c 128,-1,23
 1022 1280 1022 1280 809.5 1280 c 128,-1,24
 597 1280 597 1280 473.5 1126.5 c 128,-1,25
 350 973 350 973 350 726 c 128,-1,26
 350 479 350 479 472 329.5 c 128,-1,19
 594 180 594 180 809 180 c 128,-1,20
EndSplineSet
EndChar

StartChar: R
Encoding: 82 82 53
Width: 1388
Flags: W
LayerCount: 2
UndoRedoHistory
Layer: 1
Undoes
EndUndoes
Redoes
EndRedoes
EndUndoRedoHistory
Fore
SplineSet
981 1056 m 0,0,1
 981 1189.125 981 1189.125 912.893258427 1231.69171348 c 128,-1,2
 844.786516854 1274.25842697 844.786516854 1274.25842697 756.893258427 1282.62921348 c 128,-1,3
 669 1291 669 1291 584.5 1291 c 128,-1,4
 500 1291 500 1291 390 1284 c 1,5,-1
 390 816 l 1,6,7
 490.586666667 808.946666667 490.586666667 808.946666667 624.456666667 808.946666667 c 128,-1,8
 758.326666667 808.946666667 758.326666667 808.946666667 849.5 845 c 0,9,10
 981 897 981 897 981 1056 c 0,0,1
1020 0 m 1,11,-1
 735 641 l 1,12,13
 669 636.16 669 636.16 584.1 636.16 c 128,-1,14
 499.2 636.16 499.2 636.16 390 644 c 1,15,-1
 390 0 l 1,16,-1
 150 0 l 1,17,-1
 150 1457 l 1,18,19
 392.18923508 1476.2894081 392.18923508 1476.2894081 561.241135759 1476.2894081 c 0,20,21
 1030.37339505 1476.2894081 1030.37339505 1476.2894081 1153 1330.5 c 0,22,23
 1198 1277 1198 1277 1215.5 1213.5 c 128,-1,24
 1233 1150 1233 1150 1233 1060 c 0,25,26
 1233 905 1233 905 1160 816.5 c 128,-1,27
 1087 728 1087 728 960 683 c 1,28,-1
 1289 0 l 1,29,-1
 1020 0 l 1,11,-1
EndSplineSet
EndChar

StartChar: S
Encoding: 83 83 54
Width: 1128
Flags: W
LayerCount: 2
UndoRedoHistory
Layer: 1
Undoes
EndUndoes
Redoes
EndRedoes
EndUndoRedoHistory
Fore
SplineSet
1021 605 m 128,-1,1
 1040 566 1040 566 1051.53846154 514.076923077 c 128,-1,2
 1063.07692308 462.153846154 1063.07692308 462.153846154 1063.07692308 378.228632479 c 128,-1,3
 1063.07692308 294.303418803 1063.07692308 294.303418803 1026.53846154 216.151709402 c 128,-1,4
 990 138 990 138 928.5 91 c 0,5,6
 782.382978723 -20.6666666667 782.382978723 -20.6666666667 542.874822695 -20.6666666667 c 128,-1,7
 303.366666667 -20.6666666667 303.366666667 -20.6666666667 118 90 c 1,8,-1
 146 303 l 1,9,10
 242 244 242 244 356.734848485 212.484848485 c 128,-1,11
 471.46969697 180.96969697 471.46969697 180.96969697 576.041375291 180.96969697 c 128,-1,12
 680.613053613 180.96969697 680.613053613 180.96969697 751.306526807 233.484848485 c 128,-1,13
 822 286 822 286 822 375.5 c 128,-1,14
 822 465 822 465 783.5 504.5 c 128,-1,15
 745 544 745 544 655.829446064 582.67638484 c 128,-1,16
 566.658892128 621.352769679 566.658892128 621.352769679 432.908816694 672.541070154 c 128,-1,17
 299.158741259 723.729370629 299.158741259 723.729370629 228.432600254 771.266612944 c 0,18,19
 87 866.327868852 87 866.327868852 87 1078.86831399 c 128,-1,20
 87 1291.40875912 87 1291.40875912 225.908602151 1385.70437956 c 128,-1,21
 364.817204301 1480 364.817204301 1480 590.408602151 1480 c 128,-1,22
 816 1480 816 1480 1019 1379 c 1,23,-1
 940 1196 l 1,24,25
 867 1238 867 1238 768.098039216 1259.87254902 c 128,-1,26
 669.196078431 1281.74509804 669.196078431 1281.74509804 619.676470588 1281.74509804 c 128,-1,27
 570.156862745 1281.74509804 570.156862745 1281.74509804 560.5 1281.5 c 0,28,29
 462 1279 462 1279 392.5 1232 c 128,-1,30
 323 1185 323 1185 323 1106.5 c 128,-1,31
 323 1028 323 1028 351 991 c 128,-1,32
 379 954 379 954 445 924.5 c 128,-1,33
 511 895 511 895 583.5 867 c 128,-1,34
 656 839 656 839 703.5 821 c 128,-1,35
 751 803 751 803 806.5 778.5 c 128,-1,36
 862 754 862 754 897 732 c 128,-1,37
 932 710 932 710 967 677 c 128,-1,0
 1002 644 1002 644 1021 605 c 128,-1,1
EndSplineSet
EndChar

StartChar: T
Encoding: 84 84 55
Width: 1170
Flags: W
LayerCount: 2
Fore
SplineSet
1150 1280 m 1,0,-1
 705 1280 l 1,1,-1
 705 0 l 1,2,-1
 465 0 l 1,3,-1
 465 1280 l 1,4,-1
 21 1280 l 1,5,-1
 21 1460 l 1,6,-1
 1150 1460 l 1,7,-1
 1150 1280 l 1,0,-1
EndSplineSet
EndChar

StartChar: U
Encoding: 85 85 56
Width: 1470
Flags: W
LayerCount: 2
UndoRedoHistory
Layer: 1
Undoes
EndUndoes
Redoes
EndRedoes
EndUndoRedoHistory
Fore
SplineSet
1173.5 128 m 128,-1,1
 1015 -20 1015 -20 732.5 -20 c 128,-1,2
 450 -20 450 -20 294 127 c 128,-1,3
 138 274 138 274 138 528 c 2,4,-1
 138 1460 l 1,5,-1
 378 1460 l 1,6,-1
 378 541 l 2,7,8
 378 364 378 364 470 272 c 128,-1,9
 562 180 562 180 733 180 c 128,-1,10
 904 180 904 180 998 273 c 128,-1,11
 1092 366 1092 366 1092 542 c 2,12,-1
 1092 1460 l 1,13,-1
 1332 1460 l 1,14,-1
 1332 526 l 2,15,0
 1332 276 1332 276 1173.5 128 c 128,-1,1
EndSplineSet
EndChar

StartChar: V
Encoding: 86 86 57
Width: 1360
Flags: W
LayerCount: 2
UndoRedoHistory
Layer: 1
Undoes
EndUndoes
Redoes
EndRedoes
EndUndoRedoHistory
Fore
SplineSet
806 0 m 1,0,-1
 538 0 l 1,1,-1
 43 1460 l 1,2,-1
 303 1460 l 1,3,-1
 586 587 l 1,4,-1
 681 280 l 1,5,-1
 1062 1460 l 1,6,-1
 1317 1460 l 1,7,-1
 806 0 l 1,0,-1
EndSplineSet
EndChar

StartChar: W
Encoding: 87 87 58
Width: 2083
Flags: W
LayerCount: 2
UndoRedoHistory
Layer: 1
Undoes
EndUndoes
Redoes
EndRedoes
EndUndoRedoHistory
Fore
SplineSet
1359 0 m 1,0,-1
 1043 1116 l 1,1,-1
 701 0 l 1,2,-1
 463 0 l 1,3,-1
 52 1460 l 1,4,-1
 298 1460 l 1,5,-1
 591 328 l 1,6,-1
 926 1442 l 1,7,-1
 1159 1442 l 1,8,-1
 1475 323 l 1,9,-1
 1786 1460 l 1,10,-1
 2032 1460 l 1,11,-1
 1606 0 l 1,12,-1
 1359 0 l 1,0,-1
EndSplineSet
EndChar

StartChar: X
Encoding: 88 88 59
Width: 1360
Flags: W
LayerCount: 2
UndoRedoHistory
Layer: 1
Undoes
EndUndoes
Redoes
EndRedoes
EndUndoRedoHistory
Fore
SplineSet
1040 0 m 1,0,-1
 679 548 l 1,1,-1
 304 0 l 1,2,-1
 47 0 l 1,3,-1
 548 747 l 1,4,-1
 79 1460 l 1,5,-1
 351 1460 l 1,6,-1
 701 929 l 1,7,-1
 1037 1460 l 1,8,-1
 1292 1460 l 1,9,-1
 827 737 l 1,10,-1
 1313 0 l 1,11,-1
 1040 0 l 1,0,-1
EndSplineSet
EndChar

StartChar: Y
Encoding: 89 89 60
Width: 1251
Flags: W
LayerCount: 2
UndoRedoHistory
Layer: 1
Undoes
EndUndoes
Redoes
EndRedoes
EndUndoRedoHistory
Fore
SplineSet
751 0 m 1,0,-1
 511 0 l 1,1,-1
 511 564 l 1,2,-1
 20 1460 l 1,3,-1
 276 1460 l 1,4,-1
 630 783 l 1,5,-1
 979 1460 l 1,6,-1
 1232 1460 l 1,7,-1
 751 566 l 1,8,-1
 751 0 l 1,0,-1
EndSplineSet
EndChar

StartChar: Z
Encoding: 90 90 61
Width: 1133
Flags: W
LayerCount: 2
UndoRedoHistory
Layer: 1
Undoes
EndUndoes
Redoes
EndRedoes
EndUndoRedoHistory
Fore
SplineSet
1081 0 m 1,0,-1
 99 0 l 1,1,-1
 99 160 l 1,2,-1
 775 1280 l 1,3,-1
 127 1280 l 1,4,-1
 119 1460 l 1,5,-1
 1045 1460 l 1,6,-1
 1048 1293 l 1,7,-1
 365 180 l 1,8,-1
 1061 180 l 1,9,-1
 1081 0 l 1,0,-1
EndSplineSet
EndChar

StartChar: bracketleft
Encoding: 91 91 62
Width: 735
Flags: W
LayerCount: 2
UndoRedoHistory
Layer: 1
Undoes
EndUndoes
Redoes
EndRedoes
EndUndoRedoHistory
Fore
SplineSet
660 -175 m 1,0,-1
 205 -175 l 1,1,-1
 205 1460 l 1,2,-1
 660 1460 l 1,3,-1
 660 1298 l 1,4,-1
 419 1298 l 1,5,-1
 419 -13 l 1,6,-1
 660 -13 l 1,7,-1
 660 -175 l 1,0,-1
EndSplineSet
EndChar

StartChar: backslash
Encoding: 92 92 63
Width: 894
Flags: W
LayerCount: 2
Fore
SplineSet
818 0 m 1,0,-1
 623 0 l 1,1,-1
 115 1460 l 1,2,-1
 313 1460 l 1,3,-1
 818 0 l 1,0,-1
EndSplineSet
EndChar

StartChar: bracketright
Encoding: 93 93 64
Width: 736
Flags: W
LayerCount: 2
Fore
SplineSet
560 -175 m 1,0,-1
 106 -175 l 1,1,-1
 106 -13 l 1,2,-1
 347 -13 l 1,3,-1
 347 1297 l 1,4,-1
 106 1297 l 1,5,-1
 106 1460 l 1,6,-1
 560 1460 l 1,7,-1
 560 -175 l 1,0,-1
EndSplineSet
EndChar

StartChar: asciicircum
Encoding: 94 94 65
Width: 1178
Flags: W
LayerCount: 2
Fore
SplineSet
277 545 m 1,0,-1
 94 545 l 1,1,-1
 537 1460 l 1,2,-1
 654 1460 l 1,3,-1
 1123 545 l 1,4,-1
 939 545 l 1,5,-1
 597 1225 l 1,6,-1
 277 545 l 1,0,-1
EndSplineSet
EndChar

StartChar: underscore
Encoding: 95 95 66
Width: 1051
Flags: W
LayerCount: 2
Fore
SplineSet
66 -221 m 1,0,-1
 66 -62 l 1,1,-1
 1017 -62 l 1,2,-1
 1017 -221 l 1,3,-1
 66 -221 l 1,0,-1
EndSplineSet
EndChar

StartChar: grave
Encoding: 96 96 67
Width: 544
Flags: W
LayerCount: 2
Fore
SplineSet
360 1058 m 1,0,-1
 51 1460 l 1,1,-1
 316 1460 l 1,2,-1
 501 1058 l 1,3,-1
 360 1058 l 1,0,-1
EndSplineSet
EndChar

StartChar: a
Encoding: 97 97 68
Width: 1026
Flags: W
LayerCount: 2
UndoRedoHistory
Layer: 1
Undoes
EndUndoes
Redoes
EndRedoes
EndUndoRedoHistory
Fore
SplineSet
332 190 m 128,-1,1
 373 147 373 147 447 147 c 128,-1,2
 521 147 521 147 586.5 182.5 c 128,-1,3
 652 218 652 218 697 273 c 1,4,-1
 697 475 l 1,5,-1
 590 475 l 2,6,7
 423 475 423 475 357 440 c 128,-1,8
 291 405 291 405 291 319 c 128,-1,0
 291 233 291 233 332 190 c 128,-1,1
755 0 m 1,9,-1
 724 153 l 1,10,11
 599 -18 599 -18 411 -18 c 0,12,13
 267 -18 267 -18 173.5 62.5 c 128,-1,14
 80 143 80 143 80 303 c 128,-1,15
 80 463 80 463 187 538 c 128,-1,16
 294 613 294 613 530 613 c 2,17,-1
 698 613 l 1,18,-1
 698 682 l 2,19,20
 698 906 698 906 480 906 c 0,21,22
 350 906 350 906 180 838 c 1,23,-1
 133 999 l 1,24,25
 315 1076 315 1076 492.037234043 1076 c 128,-1,26
 669.074468085 1076 669.074468085 1076 793.037234043 979.698347107 c 128,-1,27
 917 883.396694215 917 883.396694215 917 662 c 2,28,-1
 917 0 l 1,29,-1
 755 0 l 1,9,-1
EndSplineSet
EndChar

StartChar: b
Encoding: 98 98 69
Width: 1188
Flags: W
LayerCount: 2
UndoRedoHistory
Layer: 1
Undoes
EndUndoes
Redoes
EndRedoes
EndUndoRedoHistory
Fore
SplineSet
353 908 m 1,0,1
 459.536585366 1076 459.536585366 1076 668.268292683 1076 c 128,-1,2
 877 1076 877 1076 992.5 927.5 c 128,-1,3
 1108 779 1108 779 1108 531.5 c 128,-1,4
 1108 284 1108 284 989.5 133 c 128,-1,5
 871 -18 871 -18 665 -18 c 0,6,7
 560 -18 560 -18 475 28.5 c 128,-1,8
 390 75 390 75 338 156 c 1,9,-1
 321 0 l 1,10,-1
 134 0 l 1,11,-1
 134 1460 l 1,12,-1
 356 1480 l 1,13,-1
 356 1103 l 1,14,-1
 353 908 l 1,0,1
882 532.5 m 0,15,16
 882 906 882 906 623 906 c 0,17,18
 495 906 495 906 423.5 815.5 c 128,-1,19
 352 725 352 725 351.5 536.5 c 128,-1,20
 351 348 351 348 422.5 250 c 128,-1,21
 494 152 494 152 619.5 152 c 128,-1,22
 745 152 745 152 813.5 249.5 c 128,-1,23
 882 347 882 347 882 532.5 c 0,15,16
EndSplineSet
EndChar

StartChar: c
Encoding: 99 99 70
Width: 955
Flags: W
LayerCount: 2
UndoRedoHistory
Layer: 1
Undoes
EndUndoes
Redoes
EndRedoes
EndUndoRedoHistory
Fore
SplineSet
306 529 m 0,0,1
 306 152 306 152 625 152 c 0,2,3
 736 152 736 152 851 218 c 1,4,-1
 884 61 l 1,5,6
 775 -18 775 -18 585 -18 c 0,7,8
 355 -18 355 -18 217.5 129 c 128,-1,9
 80 276 80 276 80 531 c 128,-1,10
 80 786 80 786 225 931 c 128,-1,11
 370 1076 370 1076 574.5 1076 c 128,-1,12
 779 1076 779 1076 891 998 c 1,13,-1
 836 844 l 1,14,15
 739 906 739 906 610 906 c 128,-1,16
 481 906 481 906 393.5 806 c 128,-1,17
 306 706 306 706 306 529 c 0,0,1
EndSplineSet
EndChar

StartChar: d
Encoding: 100 100 71
Width: 1193
Flags: W
LayerCount: 2
UndoRedoHistory
Layer: 1
Undoes
EndUndoes
Redoes
EndRedoes
EndUndoRedoHistory
Fore
SplineSet
846 518 m 1,0,1
 846 906 846 906 588 906 c 0,2,3
 458 906 458 906 382 814.5 c 128,-1,4
 306 723 306 723 306 533 c 0,5,6
 306 152 306 152 575 152 c 128,-1,7
 844 152 844 152 846 518 c 1,0,1
880 0 m 1,8,-1
 859 168 l 1,9,10
 763 -18 763 -18 543 -18 c 128,-1,11
 323 -18 323 -18 201.5 132 c 128,-1,12
 80 282 80 282 80 530.5 c 128,-1,13
 80 779 80 779 203.5 927.5 c 128,-1,14
 327 1076 327 1076 533.5 1076 c 128,-1,15
 740 1076 740 1076 844 941 c 1,16,-1
 837 1110 l 1,17,-1
 837 1460 l 1,18,-1
 1061 1480 l 1,19,-1
 1061 0 l 1,20,-1
 880 0 l 1,8,-1
EndSplineSet
EndChar

StartChar: e
Encoding: 101 101 72
Width: 1063
Flags: W
LayerCount: 2
UndoRedoHistory
Layer: 1
Undoes
EndUndoes
Redoes
EndRedoes
EndUndoRedoHistory
Fore
SplineSet
578 906 m 0,0,1
 472 906 472 906 399 829 c 128,-1,2
 326 752 326 752 314 613 c 1,3,-1
 791 613 l 1,4,5
 777 906 777 906 578 906 c 0,0,1
947 64 m 1,6,7
 823 -18 823 -18 635 -18 c 0,8,9
 402.142857143 -18 402.142857143 -18 242.071428571 122.0625 c 128,-1,10
 82 262.125 82 262.125 82 545 c 0,11,12
 82 693 82 693 146.5 818.5 c 128,-1,13
 211 944 211 944 322.5 1010 c 128,-1,14
 434 1076 434 1076 574 1076 c 0,15,16
 769 1076 769 1076 878 935 c 128,-1,17
 987 794 987 794 987 567 c 1,18,-1
 979 462 l 1,19,-1
 310 462 l 1,20,21
 326.572841134 224.455943749 326.572841134 224.455943749 525 167.5 c 0,22,23
 579 152 579 152 644 152 c 0,24,25
 781 152 781 152 913 218 c 1,26,-1
 947 64 l 1,6,7
EndSplineSet
EndChar

StartChar: f
Encoding: 102 102 73
Width: 807
Flags: W
LayerCount: 2
UndoRedoHistory
Layer: 1
Undoes
EndUndoes
Redoes
EndRedoes
EndUndoRedoHistory
Fore
SplineSet
707 912 m 1,0,-1
 459 912 l 1,1,-1
 459 0 l 1,2,-1
 235 0 l 1,3,-1
 235 912 l 1,4,-1
 66 912 l 1,5,-1
 71 1039 l 1,6,-1
 235 1056 l 1,7,-1
 235 1103 l 2,8,9
 235 1312.68131868 235 1312.68131868 323.90625 1390.84065934 c 128,-1,10
 412.8125 1469 412.8125 1469 565 1469 c 0,11,12
 658 1469 658 1469 746 1451 c 1,13,-1
 726 1291 l 1,14,15
 660 1303 660 1303 596.148648649 1303 c 128,-1,16
 532.297297297 1303 532.297297297 1303 495.648648649 1269.92682927 c 128,-1,17
 459 1236.85365854 459 1236.85365854 459 1120 c 2,18,-1
 459 1058 l 1,19,-1
 707 1058 l 1,20,-1
 707 912 l 1,0,-1
EndSplineSet
EndChar

StartChar: g
Encoding: 103 103 74
Width: 1182
Flags: W
LayerCount: 2
UndoRedoHistory
Layer: 1
Undoes
EndUndoes
Redoes
EndRedoes
EndUndoRedoHistory
Fore
SplineSet
570 187 m 0,0,1
 835 187 835 187 837 512 c 1,2,-1
 837 566 l 2,3,4
 837 906 837 906 574 906 c 0,5,6
 371.209302326 906 371.209302326 906 319 681.5 c 0,7,8
 304 617 304 617 304 540.5 c 0,9,10
 304 387 304 387 364 287 c 128,-1,11
 424 187 424 187 570 187 c 0,0,1
852 203 m 1,12,13
 760.021978022 17 760.021978022 17 519 17 c 0,14,15
 396 17 396 17 291 86 c 128,-1,16
 186 155 186 155 132 271 c 128,-1,17
 78 387 78 387 78 533 c 0,18,19
 78 776 78 776 205.5 926 c 128,-1,20
 333 1076 333 1076 543 1076 c 128,-1,21
 753 1076 753 1076 841 909 c 1,22,-1
 852 1058 l 1,23,-1
 1058 1058 l 1,24,-1
 1058 68 l 2,25,26
 1058 -154.991525424 1058 -154.991525424 937.588435374 -304.995762712 c 128,-1,27
 817.176870748 -455 817.176870748 -455 538.5 -455 c 0,28,29
 397 -455 397 -455 210 -404 c 1,30,-1
 237 -232 l 1,31,32
 399 -279 399 -279 504 -279 c 0,33,34
 700.641304348 -279 700.641304348 -279 779.320652174 -184.993506494 c 128,-1,35
 858 -90.987012987 858 -90.987012987 858 42 c 0,36,37
 858 105 858 105 852 203 c 1,12,13
EndSplineSet
EndChar

StartChar: h
Encoding: 104 104 75
Width: 1165
Flags: W
LayerCount: 2
UndoRedoHistory
Layer: 1
Undoes
EndUndoes
Redoes
EndRedoes
EndUndoRedoHistory
Fore
SplineSet
819 640 m 2,0,1
 819 906 819 906 641.5 906 c 0,2,3
 483.545454545 906 483.545454545 906 420.772727273 790.916666667 c 128,-1,4
 358 675.833333333 358 675.833333333 358 539 c 2,5,-1
 358 0 l 1,6,-1
 134 0 l 1,7,-1
 134 1460 l 1,8,-1
 358 1480 l 1,9,-1
 358 1133 l 1,10,-1
 352 883 l 1,11,12
 451.547368421 1076 451.547368421 1076 669 1076 c 0,13,14
 848 1076 848 1076 945.5 970.5 c 128,-1,15
 1043 865 1043 865 1043 657 c 2,16,-1
 1043 0 l 1,17,-1
 819 0 l 1,18,-1
 819 640 l 2,0,1
EndSplineSet
EndChar

StartChar: i
Encoding: 105 105 76
Width: 550
Flags: W
LayerCount: 2
UndoRedoHistory
Layer: 1
Undoes
EndUndoes
Redoes
EndRedoes
EndUndoRedoHistory
Fore
SplineSet
138 1340 m 128,-1,1
 138 1398 138 1398 175.5 1429 c 128,-1,2
 213 1460 213 1460 276 1460 c 128,-1,3
 339 1460 339 1460 376 1429 c 128,-1,4
 413 1398 413 1398 413 1340 c 128,-1,5
 413 1282 413 1282 376 1251 c 128,-1,6
 339 1220 339 1220 276 1220 c 128,-1,7
 213 1220 213 1220 175.5 1251 c 128,-1,0
 138 1282 138 1282 138 1340 c 128,-1,1
170 0 m 1,8,-1
 170 1058 l 1,9,-1
 390 1058 l 1,10,-1
 390 0 l 1,11,-1
 170 0 l 1,8,-1
EndSplineSet
EndChar

StartChar: j
Encoding: 106 106 77
Width: 662
Flags: W
LayerCount: 2
UndoRedoHistory
Layer: 1
Undoes
EndUndoes
Redoes
EndRedoes
EndUndoRedoHistory
Fore
SplineSet
260 1340 m 128,-1,1
 260 1398 260 1398 297.5 1429 c 128,-1,2
 335 1460 335 1460 398 1460 c 128,-1,3
 461 1460 461 1460 498 1429 c 128,-1,4
 535 1398 535 1398 535 1340 c 128,-1,5
 535 1282 535 1282 498 1251 c 128,-1,6
 461 1220 461 1220 398 1220 c 128,-1,7
 335 1220 335 1220 297.5 1251 c 128,-1,0
 260 1282 260 1282 260 1340 c 128,-1,1
88 -380 m 1,8,-1
 66 -205 l 1,9,-1
 106 -201 l 2,10,11
 181 -194 181 -194 217 -176 c 128,-1,12
 253 -158 253 -158 268.5 -116 c 128,-1,13
 284 -74 284 -74 284 10 c 2,14,-1
 284 1058 l 1,15,-1
 504 1058 l 1,16,-1
 504 21 l 2,17,18
 504 -96 504 -96 490 -165 c 128,-1,19
 476 -234 476 -234 434 -280 c 128,-1,20
 392 -326 392 -326 326.5 -346 c 128,-1,21
 261 -366 261 -366 149 -375 c 2,22,-1
 88 -380 l 1,8,-1
EndSplineSet
EndChar

StartChar: k
Encoding: 107 107 78
Width: 1109
Flags: W
LayerCount: 2
UndoRedoHistory
Layer: 1
Undoes
EndUndoes
Redoes
EndRedoes
EndUndoRedoHistory
Fore
SplineSet
826 0 m 1,0,-1
 457 471 l 1,1,-1
 356 373 l 1,2,-1
 356 0 l 1,3,-1
 134 0 l 1,4,-1
 134 1460 l 1,5,-1
 356 1480 l 1,6,-1
 356 783 l 1,7,-1
 350 572 l 1,8,-1
 792 1058 l 1,9,-1
 1067 1058 l 1,10,-1
 623 578 l 1,11,-1
 1089 0 l 1,12,-1
 826 0 l 1,0,-1
EndSplineSet
EndChar

StartChar: l
Encoding: 108 108 79
Width: 656
Flags: W
LayerCount: 2
UndoRedoHistory
Layer: 1
Undoes
EndUndoes
Redoes
EndRedoes
EndUndoRedoHistory
Fore
SplineSet
591 -6 m 1,0,-1
 519 -6 l 2,1,2
 356.863636364 -6 356.863636364 -6 288.931818182 24.5 c 128,-1,3
 221 55 221 55 192 92.5 c 0,4,5
 132 170.086206897 132 170.086206897 132 327 c 2,6,-1
 132 1460 l 1,7,-1
 354 1480 l 1,8,-1
 354 309 l 2,9,10
 354 234 354 234 388.5 204 c 128,-1,11
 423 174 423 174 509 167 c 2,12,-1
 604 159 l 1,13,-1
 591 -6 l 1,0,-1
EndSplineSet
EndChar

StartChar: m
Encoding: 109 109 80
Width: 1711
Flags: W
LayerCount: 2
UndoRedoHistory
Layer: 1
Undoes
EndUndoes
Redoes
EndRedoes
EndUndoRedoHistory
Fore
SplineSet
353 559 m 2,0,-1
 353 0 l 1,1,-1
 132 0 l 1,2,-1
 132 1058 l 1,3,-1
 314 1058 l 1,4,-1
 338 874 l 1,5,6
 429 1076 429 1076 644.5 1076 c 128,-1,7
 860 1076 860 1076 925 854 c 1,8,9
 1026 1076 1026 1076 1254 1076 c 0,10,11
 1589 1076 1589 1076 1589 676 c 2,12,-1
 1589 0 l 1,13,-1
 1368 0 l 1,14,-1
 1368 603 l 2,15,16
 1368 793.545454545 1368 793.545454545 1329.34375 849.772727273 c 128,-1,17
 1290.6875 906 1290.6875 906 1197.34375 906 c 128,-1,18
 1104 906 1104 906 1038.5 809.5 c 128,-1,19
 973 713 973 713 973 560 c 2,20,-1
 973 0 l 1,21,-1
 752 0 l 1,22,-1
 752 605 l 2,23,24
 752 767 752 767 718.5 836.5 c 128,-1,25
 685 906 685 906 581.5 906 c 128,-1,26
 478 906 478 906 415.5 811 c 128,-1,27
 353 716 353 716 353 559 c 2,0,-1
EndSplineSet
EndChar

StartChar: n
Encoding: 110 110 81
Width: 1165
Flags: W
LayerCount: 2
UndoRedoHistory
Layer: 1
Undoes
EndUndoes
Redoes
EndRedoes
EndUndoRedoHistory
Fore
SplineSet
356 529 m 2,0,-1
 356 0 l 1,1,-1
 132 0 l 1,2,-1
 132 1058 l 1,3,-1
 317 1058 l 1,4,-1
 340 858 l 1,5,6
 386 961 386 961 465.5 1018.5 c 128,-1,7
 545 1076 545 1076 679 1076 c 0,8,9
 850 1076 850 1076 946.5 964 c 128,-1,10
 1043 852 1043 852 1043 646 c 2,11,-1
 1043 0 l 1,12,-1
 819 0 l 1,13,-1
 819 628 l 2,14,15
 819 769 819 769 775.5 837.5 c 128,-1,16
 732 906 732 906 614.5 906 c 128,-1,17
 497 906 497 906 426.5 796 c 128,-1,18
 356 686 356 686 356 529 c 2,0,-1
EndSplineSet
EndChar

StartChar: o
Encoding: 111 111 82
Width: 1180
Flags: W
LayerCount: 2
UndoRedoHistory
Layer: 1
Undoes
EndUndoes
Redoes
EndRedoes
EndUndoRedoHistory
Fore
SplineSet
590 1076 m 128,-1,1
 823 1076 823 1076 961.5 927.5 c 128,-1,2
 1100 779 1100 779 1100 530 c 128,-1,3
 1100 281 1100 281 961 131.5 c 128,-1,4
 822 -18 822 -18 590 -18 c 128,-1,5
 358 -18 358 -18 219 131.5 c 128,-1,6
 80 281 80 281 80 530 c 128,-1,7
 80 779 80 779 218.5 927.5 c 128,-1,0
 357 1076 357 1076 590 1076 c 128,-1,1
590 152 m 128,-1,9
 728 152 728 152 801 251.5 c 128,-1,10
 874 351 874 351 874 530 c 128,-1,11
 874 709 874 709 801 807.5 c 128,-1,12
 728 906 728 906 590 906 c 128,-1,13
 452 906 452 906 379 807.5 c 128,-1,14
 306 709 306 709 306 530 c 128,-1,15
 306 351 306 351 379 251.5 c 128,-1,8
 452 152 452 152 590 152 c 128,-1,9
EndSplineSet
EndChar

StartChar: p
Encoding: 112 112 83
Width: 1180
Flags: W
LayerCount: 2
UndoRedoHistory
Layer: 1
Undoes
EndUndoes
Redoes
EndRedoes
EndUndoRedoHistory
Fore
SplineSet
874 532 m 0,0,1
 874 906 874 906 621 906 c 0,2,3
 355 906 355 906 353 548 c 1,4,5
 353 152 353 152 615 152 c 0,6,7
 740 152 740 152 807 249 c 128,-1,8
 874 346 874 346 874 532 c 0,0,1
356 -37 m 1,9,-1
 356 -441 l 1,10,-1
 132 -441 l 1,11,-1
 132 1058 l 1,12,-1
 317 1058 l 1,13,-1
 340 870 l 1,14,15
 434 1076 434 1076 673 1076 c 0,16,17
 806 1076 806 1076 904 1005 c 0,18,19
 1100 863 1100 863 1100 530 c 0,20,21
 1100 287 1100 287 977.5 134.5 c 128,-1,22
 855 -18 855 -18 648 -18 c 0,23,24
 550 -18 550 -18 473.5 28 c 128,-1,25
 397 74 397 74 351 153 c 1,26,-1
 356 -37 l 1,9,-1
EndSplineSet
EndChar

StartChar: q
Encoding: 113 113 84
Width: 1195
Flags: W
LayerCount: 2
UndoRedoHistory
Layer: 1
Undoes
EndUndoes
Redoes
EndRedoes
EndUndoRedoHistory
Fore
SplineSet
205 925.5 m 128,-1,1
 330 1076 330 1076 540.773195876 1076 c 128,-1,2
 751.546391753 1076 751.546391753 1076 847 879 c 1,3,-1
 863 1058 l 1,4,-1
 1063 1058 l 1,5,-1
 1063 -429 l 1,6,-1
 839 -441 l 1,7,-1
 839 -20 l 1,8,-1
 843 158 l 1,9,10
 751 -18 751 -18 540 -18 c 128,-1,11
 329 -18 329 -18 204.5 131.5 c 128,-1,12
 80 281 80 281 80 528 c 128,-1,0
 80 775 80 775 205 925.5 c 128,-1,1
573 152 m 0,13,14
 843.50094518 152 843.50094518 152 843.50094518 529 c 128,-1,15
 843.50094518 906 843.50094518 906 580 906 c 0,16,17
 450 906 450 906 378 808.5 c 128,-1,18
 306 711 306 711 306 530 c 128,-1,19
 306 349 306 349 377 250.5 c 128,-1,20
 448 152 448 152 573 152 c 0,13,14
EndSplineSet
EndChar

StartChar: r
Encoding: 114 114 85
Width: 783
Flags: W
LayerCount: 2
UndoRedoHistory
Layer: 1
Undoes
EndUndoes
Redoes
EndRedoes
EndUndoRedoHistory
Fore
SplineSet
356 0 m 1,0,-1
 132 0 l 1,1,-1
 132 1058 l 1,2,-1
 317 1058 l 1,3,-1
 342 857 l 1,4,5
 402.056022409 983.117647059 402.056022409 983.117647059 487.837535014 1024.05882353 c 128,-1,6
 573.619047619 1065 573.619047619 1065 642.80952381 1065 c 128,-1,7
 712 1065 712 1065 742 1059 c 1,8,-1
 737 886 l 1,9,10
 702 893 702 893 656 893 c 0,11,12
 515 893 515 893 435.5 816 c 128,-1,13
 356 739 356 739 356 584 c 2,14,-1
 356 0 l 1,0,-1
EndSplineSet
EndChar

StartChar: s
Encoding: 115 115 86
Width: 844
Flags: W
LayerCount: 2
UndoRedoHistory
Layer: 1
Undoes
EndUndoes
Redoes
EndRedoes
EndUndoRedoHistory
Fore
SplineSet
445 906 m 0,0,1
 283.313432836 906 283.313432836 906 283.313432836 803.580431177 c 0,2,3
 283.313432836 748.686567164 283.313432836 748.686567164 313.156716418 718.843283582 c 128,-1,4
 343 689 343 689 425.5 653.5 c 0,5,6
 745.877629063 515.640535373 745.877629063 515.640535373 779.87136294 393.263093415 c 0,7,8
 791.009615385 353.165384615 791.009615385 353.165384615 791.009615385 294.026164941 c 0,9,10
 791.009615385 141.230769231 791.009615385 141.230769231 688.504807692 61.6153846154 c 128,-1,11
 586 -18 586 -18 415.447368421 -18 c 128,-1,12
 244.894736842 -18 244.894736842 -18 87 62 c 1,13,-1
 136 232 l 1,14,15
 304 152 304 152 422 152 c 0,16,17
 582 152 582 152 582 288 c 0,18,19
 582 355.692307692 582 355.692307692 516.5 396 c 0,20,21
 484 416 484 416 414.5 446.5 c 128,-1,22
 345 477 345 477 296 500 c 128,-1,23
 247 523 247 523 201.5 550.5 c 128,-1,24
 156 578 156 578 135.5 598.5 c 128,-1,25
 115 619 115 619 94 657.818181818 c 128,-1,26
 73 696.636363636 73 696.636363636 73 781.318181818 c 0,27,28
 73 942.398058252 73 942.398058252 178.853846154 1009.19902913 c 128,-1,29
 284.707692308 1076 284.707692308 1076 449.353846154 1076 c 128,-1,30
 614 1076 614 1076 764 989 c 1,31,-1
 704 818 l 1,32,33
 576 906 576 906 445 906 c 0,0,1
EndSplineSet
EndChar

StartChar: t
Encoding: 116 116 87
Width: 779
Flags: W
LayerCount: 2
UndoRedoHistory
Layer: 1
Undoes
EndUndoes
Redoes
EndRedoes
EndUndoRedoHistory
Fore
SplineSet
723 157 m 1,0,-1
 714 -6 l 1,1,-1
 578 -6 l 2,2,3
 358.526315789 -6 358.526315789 -6 283 81.5 c 0,4,5
 242 129 242 129 226.5 195.5 c 128,-1,6
 211 262 211 262 211 367 c 2,7,-1
 211 912 l 1,8,-1
 44 912 l 1,9,-1
 51 1047 l 1,10,-1
 223 1058 l 1,11,-1
 244 1352 l 1,12,-1
 435 1367 l 1,13,-1
 435 1058 l 1,14,-1
 701 1058 l 1,15,-1
 701 912 l 1,16,-1
 435 912 l 1,17,-1
 435 361 l 2,18,19
 435 233 435 233 469.5 204.5 c 128,-1,20
 504 176 504 176 647 164 c 1,21,22
 677 161 l 1,23,-1
 723 157 l 1,0,-1
EndSplineSet
EndChar

StartChar: u
Encoding: 117 117 88
Width: 1155
Flags: W
LayerCount: 2
UndoRedoHistory
Layer: 1
Undoes
EndUndoes
Redoes
EndRedoes
EndUndoRedoHistory
Fore
SplineSet
848 0 m 1,0,-1
 827 164 l 1,1,2
 779 68 779 68 699 25 c 128,-1,3
 619 -18 619 -18 501 -18 c 0,4,5
 318 -18 318 -18 220 87 c 128,-1,6
 122 192 122 192 122 400 c 2,7,-1
 122 1058 l 1,8,-1
 346 1058 l 1,9,-1
 346 409 l 2,10,11
 346 280 346 280 394.5 216 c 128,-1,12
 443 152 443 152 555 152 c 0,13,14
 724.379310345 152 724.379310345 152 773.5 281.5 c 0,15,16
 803 359.272727273 803 359.272727273 803 491 c 2,17,-1
 803 1058 l 1,18,-1
 1027 1058 l 1,19,-1
 1027 0 l 1,20,-1
 848 0 l 1,0,-1
EndSplineSet
EndChar

StartChar: v
Encoding: 118 118 89
Width: 1134
Flags: W
LayerCount: 2
UndoRedoHistory
Layer: 1
Undoes
EndUndoes
Redoes
EndRedoes
EndUndoRedoHistory
Fore
SplineSet
680 0 m 1,0,-1
 466 0 l 1,1,-1
 47 1058 l 1,2,-1
 281 1058 l 1,3,-1
 496 475 l 1,4,-1
 577 235 l 1,5,-1
 651 475 l 1,6,-1
 861 1058 l 1,7,-1
 1087 1058 l 1,8,-1
 680 0 l 1,0,-1
EndSplineSet
EndChar

StartChar: w
Encoding: 119 119 90
Width: 1560
Flags: W
LayerCount: 2
UndoRedoHistory
Layer: 1
Undoes
EndUndoes
Redoes
EndRedoes
EndUndoRedoHistory
Fore
SplineSet
1017 0 m 1,0,-1
 780 825 l 1,1,-1
 537 0 l 1,2,-1
 335 0 l 1,3,-1
 49 1058 l 1,4,-1
 254 1058 l 1,5,-1
 445 258 l 1,6,-1
 674 1058 l 1,7,-1
 895 1058 l 1,8,-1
 1123 259 l 1,9,-1
 1320 1058 l 1,10,-1
 1511 1058 l 1,11,-1
 1217 0 l 1,12,-1
 1017 0 l 1,0,-1
EndSplineSet
EndChar

StartChar: x
Encoding: 120 120 91
Width: 1082
Flags: W
LayerCount: 2
UndoRedoHistory
Layer: 1
Undoes
EndUndoes
Redoes
EndRedoes
EndUndoRedoHistory
Fore
SplineSet
807 0 m 1,0,-1
 525 392 l 1,1,-1
 263 0 l 1,2,-1
 27 0 l 1,3,-1
 412 549 l 1,4,-1
 47 1058 l 1,5,-1
 294 1058 l 1,6,-1
 562 685 l 1,7,-1
 807 1058 l 1,8,-1
 1045 1058 l 1,9,-1
 675 528 l 1,10,-1
 1056 0 l 1,11,-1
 807 0 l 1,0,-1
EndSplineSet
EndChar

StartChar: y
Encoding: 121 121 92
Width: 1077
Flags: W
LayerCount: 2
Fore
SplineSet
491 -444 m 1,0,-1
 289 -412 l 1,1,-1
 461 38 l 1,2,-1
 43 1058 l 1,3,-1
 268 1058 l 1,4,-1
 560 303 l 1,5,-1
 815 1058 l 1,6,-1
 1046 1058 l 1,7,-1
 491 -444 l 1,0,-1
EndSplineSet
EndChar

StartChar: z
Encoding: 122 122 93
Width: 883
Flags: W
LayerCount: 2
Fore
SplineSet
822 0 m 1,0,-1
 73 0 l 1,1,-1
 73 140 l 1,2,-1
 568 898 l 1,3,-1
 95 898 l 1,4,-1
 95 1058 l 1,5,-1
 809 1058 l 1,6,-1
 809 904 l 1,7,-1
 329 166 l 1,8,-1
 822 166 l 1,9,-1
 822 0 l 1,0,-1
EndSplineSet
EndChar

StartChar: braceleft
Encoding: 123 123 94
Width: 738
Flags: W
LayerCount: 2
UndoRedoHistory
Layer: 1
Undoes
EndUndoes
Redoes
EndRedoes
EndUndoRedoHistory
Fore
SplineSet
664 -96 m 1,0,-1
 664 -269 l 1,1,2
 466 -269 466 -269 374.5 -196 c 128,-1,3
 283 -123 283 -123 283 46 c 2,4,-1
 283 279 l 2,5,6
 283 401.840909091 283 401.840909091 253.5 445.420454545 c 128,-1,7
 224 489 224 489 182.5 503.5 c 128,-1,8
 141 518 141 518 75 518 c 1,9,-1
 75 703 l 1,10,11
 205.75 703 205.75 703 244.375 759.181818182 c 128,-1,12
 283 815.363636364 283 815.363636364 283 939 c 2,13,-1
 283 1201 l 2,14,15
 283 1359 283 1359 377.5 1429 c 128,-1,16
 472 1499 472 1499 664 1499 c 1,17,-1
 664 1323 l 1,18,19
 561 1322 561 1322 527 1282.5 c 128,-1,20
 493 1243 493 1243 493 1133 c 2,21,-1
 493 873 l 1,22,23
 492 769 492 769 450.5 708 c 128,-1,24
 409 647 409 647 313 608 c 1,25,26
 405 582 405 582 449 521 c 128,-1,27
 493 460 493 460 493 354 c 2,28,-1
 493 93 l 2,29,30
 493 -16 493 -16 526.5 -55.5 c 128,-1,31
 560 -95 560 -95 664 -96 c 1,0,-1
EndSplineSet
EndChar

StartChar: bar
Encoding: 124 124 95
Width: 499
Flags: W
LayerCount: 2
UndoRedoHistory
Layer: 1
Undoes
EndUndoes
Redoes
EndRedoes
EndUndoRedoHistory
Fore
SplineSet
356 -317 m 1,0,-1
 179 -317 l 1,1,-1
 179 1480 l 1,2,-1
 356 1480 l 1,3,-1
 356 -317 l 1,0,-1
EndSplineSet
EndChar

StartChar: braceright
Encoding: 125 125 96
Width: 738
Flags: W
LayerCount: 2
UndoRedoHistory
Layer: 1
Undoes
EndUndoes
Redoes
EndRedoes
EndUndoRedoHistory
Fore
SplineSet
477 25 m 2,0,1
 477 -133 477 -133 384.5 -201 c 128,-1,2
 292 -269 292 -269 98 -269 c 1,3,-1
 98 -96 l 1,4,5
 201 -95 201 -95 234.5 -56 c 128,-1,6
 268 -17 268 -17 268 93 c 2,7,-1
 268 354 l 2,8,9
 268 451 268 451 311 513 c 128,-1,10
 354 575 354 575 449 613 c 1,11,12
 270 674 270 674 268 874 c 1,13,-1
 268 1133 l 2,14,15
 268 1243 268 1243 234.5 1283 c 128,-1,16
 201 1323 201 1323 98 1324 c 1,17,-1
 98 1499 l 1,18,19
 296 1499 296 1499 386.5 1425 c 128,-1,20
 477 1351 477 1351 477 1180 c 2,21,-1
 477 940 l 2,22,23
 477 818.818181818 477 818.818181818 506.5 775.909090909 c 128,-1,24
 536 733 536 733 578 719.5 c 128,-1,25
 620 706 620 706 687 705 c 1,26,-1
 687 520 l 1,27,28
 558.390625 520 558.390625 520 517.6953125 462.122222222 c 128,-1,29
 477 404.244444444 477 404.244444444 477 281 c 2,30,-1
 477 25 l 2,0,1
EndSplineSet
EndChar

StartChar: asciitilde
Encoding: 126 126 97
Width: 1181
Flags: W
LayerCount: 2
UndoRedoHistory
Layer: 1
Undoes
EndUndoes
Redoes
EndRedoes
EndUndoRedoHistory
Fore
SplineSet
114 606 m 1,0,1
 202.735632184 799 202.735632184 799 388 799 c 0,2,3
 488 799 488 799 640.5 732 c 128,-1,4
 793 665 793 665 852 665 c 0,5,6
 962 665 962 665 1062 805 c 1,7,-1
 1131 686 l 1,8,9
 1091 601 1091 601 1015 546.5 c 128,-1,10
 939 492 939 492 844 492 c 128,-1,11
 749 492 749 492 601.06 559.5 c 128,-1,12
 453.12 627 453.12 627 386.56 627 c 0,13,14
 261.09375 627 261.09375 627 183 480 c 1,15,-1
 114 606 l 1,0,1
EndSplineSet
EndChar

StartChar: exclamdown
Encoding: 161 161 99
Width: 574
Flags: WO
LayerCount: 2
UndoRedoHistory
Layer: 1
Undoes
EndUndoes
Redoes
EndRedoes
EndUndoRedoHistory
Fore
SplineSet
317 1200 m 128,-1,1
 379 1200 379 1200 418 1158.5 c 128,-1,2
 457 1117 457 1117 457 1060 c 128,-1,3
 457 1003 457 1003 418 962 c 128,-1,4
 379 921 379 921 317 921 c 128,-1,5
 255 921 255 921 216.5 962 c 128,-1,6
 178 1003 178 1003 178 1060 c 128,-1,7
 178 1117 178 1117 216.5 1158.5 c 128,-1,0
 255 1200 255 1200 317 1200 c 128,-1,1
362 751 m 1,8,-1
 427 -108 l 1,9,-1
 427 -290 l 1,10,-1
 206 -290 l 1,11,-1
 206 -108 l 1,12,-1
 264 751 l 1,13,-1
 362 751 l 1,8,-1
EndSplineSet
EndChar

StartChar: cent
Encoding: 162 162 100
Width: 982
Flags: W
LayerCount: 2
Fore
SplineSet
884 61 m 1,0,1
 794 -4 794 -4 644 -16 c 1,2,-1
 614 -278 l 1,3,-1
 528 -278 l 1,4,-1
 502 -13 l 1,5,6
 307 14 307 14 193.5 157.5 c 128,-1,7
 80 301 80 301 80 531 c 0,8,9
 80 759 80 759 199.5 902 c 128,-1,10
 319 1045 319 1045 512 1071 c 1,11,-1
 543 1340 l 1,12,-1
 629 1340 l 1,13,-1
 656 1073 l 1,14,15
 798 1061 798 1061 891 998 c 1,16,-1
 836 844 l 1,17,18
 739 906 739 906 617 906 c 0,19,20
 481 906 481 906 393.5 806 c 128,-1,21
 306 706 306 706 306 529 c 0,22,23
 306 347 306 347 385 249.5 c 128,-1,24
 464 152 464 152 625 152 c 0,25,26
 736 152 736 152 851 218 c 1,27,-1
 884 61 l 1,0,1
EndSplineSet
EndChar

StartChar: sterling
Encoding: 163 163 101
Width: 1085
Flags: W
LayerCount: 2
Fore
SplineSet
1058 10 m 1,0,-1
 98 10 l 1,1,-1
 87 179 l 1,2,-1
 262 199 l 1,3,-1
 262 660 l 1,4,-1
 82 660 l 1,5,-1
 82 822 l 1,6,-1
 262 822 l 1,7,-1
 262 925 l 2,8,9
 262 1021 262 1021 274 1099.5 c 128,-1,10
 286 1178 286 1178 316 1249.5 c 128,-1,11
 346 1321 346 1321 393.5 1370 c 128,-1,12
 441 1419 441 1419 515.5 1447.5 c 128,-1,13
 590 1476 590 1476 688 1476 c 0,14,15
 896 1476 896 1476 1051 1344 c 1,16,-1
 957 1197 l 1,17,18
 824 1294 824 1294 695 1294 c 0,19,20
 576 1294 576 1294 524 1217.5 c 128,-1,21
 472 1141 472 1141 472 996 c 2,22,-1
 472 822 l 1,23,-1
 859 822 l 1,24,-1
 859 660 l 1,25,-1
 472 660 l 1,26,-1
 472 201 l 1,27,-1
 1067 201 l 1,28,-1
 1058 10 l 1,0,-1
EndSplineSet
EndChar

StartChar: currency
Encoding: 164 164 102
Width: 1152
Flags: W
LayerCount: 2
Fore
SplineSet
1029 227 m 1,0,-1
 848 397 l 1,1,2
 739 312 739 312 600 312 c 0,3,4
 457 312 457 312 350 396 c 1,5,-1
 174 228 l 1,6,-1
 86 314 l 1,7,-1
 266 486 l 1,8,9
 192 593 192 593 192 722 c 0,10,11
 192 849 192 849 266 958 c 1,12,-1
 85 1132 l 1,13,-1
 174 1218 l 1,14,-1
 351 1049 l 1,15,16
 462 1134 462 1134 600 1134 c 0,17,18
 741 1134 741 1134 848 1048 c 1,19,-1
 1029 1218 l 1,20,-1
 1113 1130 l 1,21,-1
 934 958 l 1,22,23
 1008 848 1008 848 1008 722 c 0,24,25
 1008 591 1008 591 935 486 c 1,26,-1
 1112 315 l 1,27,-1
 1029 227 l 1,0,-1
600 438 m 0,28,29
 721 438 721 438 800.5 520.5 c 128,-1,30
 880 603 880 603 880 722 c 128,-1,31
 880 841 880 841 800 924.5 c 128,-1,32
 720 1008 720 1008 600 1008 c 0,33,34
 481 1008 481 1008 401.5 924.5 c 128,-1,35
 322 841 322 841 322 722 c 0,36,37
 322 604 322 604 401.5 521 c 128,-1,38
 481 438 481 438 600 438 c 0,28,29
EndSplineSet
EndChar

StartChar: yen
Encoding: 165 165 103
Width: 1260
Flags: W
LayerCount: 2
Fore
SplineSet
1076 250 m 1,0,-1
 751 250 l 1,1,-1
 751 0 l 1,2,-1
 511 0 l 1,3,-1
 511 250 l 1,4,-1
 192 250 l 1,5,-1
 192 397 l 1,6,-1
 511 397 l 1,7,-1
 511 543 l 1,8,-1
 193 543 l 1,9,-1
 193 684 l 1,10,-1
 445 684 l 1,11,-1
 20 1460 l 1,12,-1
 276 1460 l 1,13,-1
 630 783 l 1,14,-1
 979 1460 l 1,15,-1
 1232 1460 l 1,16,-1
 814 684 l 1,17,-1
 1076 684 l 1,18,-1
 1076 543 l 1,19,-1
 751 543 l 1,20,-1
 751 397 l 1,21,-1
 1076 397 l 1,22,-1
 1076 250 l 1,0,-1
EndSplineSet
EndChar

StartChar: brokenbar
Encoding: 166 166 104
Width: 564
Flags: W
LayerCount: 2
Fore
SplineSet
388 765 m 1,0,-1
 211 765 l 1,1,-1
 211 1470 l 1,2,-1
 388 1470 l 1,3,-1
 388 765 l 1,0,-1
388 -303 m 1,4,-1
 211 -303 l 1,5,-1
 211 404 l 1,6,-1
 388 404 l 1,7,-1
 388 -303 l 1,4,-1
EndSplineSet
EndChar

StartChar: section
Encoding: 167 167 105
Width: 918
Flags: W
LayerCount: 2
Fore
SplineSet
566 617 m 2,0,1
 589 610 589 610 602 604 c 1,2,3
 638 640 638 640 638 699 c 0,4,5
 638 746 638 746 605 778.5 c 128,-1,6
 572 811 572 811 475 843 c 2,7,-1
 374 877 l 1,8,9
 319 846 319 846 319 787 c 0,10,11
 319 738 319 738 351 708.5 c 128,-1,12
 383 679 383 679 477 647 c 2,13,-1
 566 617 l 2,0,1
471 -20 m 0,14,15
 389 -20 389 -20 297.5 1 c 128,-1,16
 206 22 206 22 131 60 c 1,17,-1
 131 255 l 1,18,19
 318 153 318 153 466 153 c 0,20,21
 549 153 549 153 593.5 190.5 c 128,-1,22
 638 228 638 228 638 293 c 0,23,24
 638 340 638 340 605 372.5 c 128,-1,25
 572 405 572 405 475 437 c 2,26,-1
 369 473 l 2,27,28
 238 517 238 517 177 582.5 c 128,-1,29
 116 648 116 648 116 744 c 0,30,31
 116 866 116 866 222 950 c 1,32,33
 166 991 166 991 141.5 1046.5 c 128,-1,34
 117 1102 117 1102 117 1181 c 0,35,36
 117 1280 117 1280 168.5 1349 c 128,-1,37
 220 1418 220 1418 300 1449 c 128,-1,38
 380 1480 380 1480 481 1480 c 0,39,40
 658 1480 658 1480 808 1393 c 1,41,-1
 748 1220 l 1,42,43
 620 1308 620 1308 486 1308 c 0,44,45
 412 1308 412 1308 365.5 1277.5 c 128,-1,46
 319 1247 319 1247 319 1193 c 0,47,48
 319 1144 319 1144 351 1114.5 c 128,-1,49
 383 1085 383 1085 477 1053 c 2,50,-1
 566 1023 l 2,51,52
 711 975 711 975 774 902 c 128,-1,53
 837 829 837 829 837 720 c 0,54,55
 837 607 837 607 747 522 c 1,56,57
 837 445 837 445 837 314 c 0,58,59
 837 227 837 227 808 161 c 128,-1,60
 779 95 779 95 728 56.5 c 128,-1,61
 677 18 677 18 612.5 -1 c 128,-1,62
 548 -20 548 -20 471 -20 c 0,14,15
EndSplineSet
EndChar

StartChar: dieresis
Encoding: 168 168 106
Width: 719
Flags: W
LayerCount: 2
Fore
SplineSet
138 1192 m 0,0,1
 77 1192 77 1192 38.5 1232 c 128,-1,2
 0 1272 0 1272 0 1328 c 128,-1,3
 0 1384 0 1384 38.5 1425 c 128,-1,4
 77 1466 77 1466 138 1466 c 0,5,6
 198 1466 198 1466 236 1425 c 128,-1,7
 274 1384 274 1384 274 1328 c 0,8,9
 274 1273 274 1273 236 1232.5 c 128,-1,10
 198 1192 198 1192 138 1192 c 0,0,1
719 1328 m 0,11,12
 719 1273 719 1273 681 1232.5 c 128,-1,13
 643 1192 643 1192 583 1192 c 0,14,15
 522 1192 522 1192 483.5 1232 c 128,-1,16
 445 1272 445 1272 445 1328 c 128,-1,17
 445 1384 445 1384 483.5 1425 c 128,-1,18
 522 1466 522 1466 583 1466 c 0,19,20
 643 1466 643 1466 681 1425 c 128,-1,21
 719 1384 719 1384 719 1328 c 0,11,12
EndSplineSet
EndChar

StartChar: copyright
Encoding: 169 169 107
Width: 1675
Flags: W
LayerCount: 2
Fore
SplineSet
837 -12 m 0,0,1
 687 -12 687 -12 548.5 41.5 c 128,-1,2
 410 95 410 95 303.5 191 c 128,-1,3
 197 287 197 287 133 431.5 c 128,-1,4
 69 576 69 576 69 747 c 128,-1,5
 69 918 69 918 132.5 1062 c 128,-1,6
 196 1206 196 1206 303 1301 c 128,-1,7
 410 1396 410 1396 548 1449 c 128,-1,8
 686 1502 686 1502 836 1502 c 0,9,10
 987 1502 987 1502 1126 1449 c 128,-1,11
 1265 1396 1265 1396 1372 1301 c 128,-1,12
 1479 1206 1479 1206 1543 1061.5 c 128,-1,13
 1607 917 1607 917 1607 747 c 0,14,15
 1607 576 1607 576 1543.5 431.5 c 128,-1,16
 1480 287 1480 287 1373 191 c 128,-1,17
 1266 95 1266 95 1127 41.5 c 128,-1,18
 988 -12 988 -12 837 -12 c 0,0,1
837 92 m 0,19,20
 1015 92 1015 92 1162.5 173 c 128,-1,21
 1310 254 1310 254 1398 404.5 c 128,-1,22
 1486 555 1486 555 1486 746 c 128,-1,23
 1486 937 1486 937 1397.5 1087 c 128,-1,24
 1309 1237 1309 1237 1161.5 1317 c 128,-1,25
 1014 1397 1014 1397 836 1397 c 0,26,27
 660 1397 660 1397 513.5 1317 c 128,-1,28
 367 1237 367 1237 279 1087 c 128,-1,29
 191 937 191 937 191 747 c 0,30,31
 191 556 191 556 279 405 c 128,-1,32
 367 254 367 254 514 173 c 128,-1,33
 661 92 661 92 837 92 c 0,19,20
838 247 m 0,34,35
 639 247 639 247 504 387 c 128,-1,36
 369 527 369 527 369 740 c 0,37,38
 369 878 369 878 429.5 992 c 128,-1,39
 490 1106 490 1106 596.5 1171.5 c 128,-1,40
 703 1237 703 1237 834 1237 c 0,41,42
 1006 1237 1006 1237 1132 1151 c 1,43,-1
 1080 1046 l 1,44,45
 975 1116 975 1116 842 1116 c 0,46,47
 698 1116 698 1116 606.5 1012.5 c 128,-1,48
 515 909 515 909 515 743 c 0,49,50
 515 572 515 572 607.5 469.5 c 128,-1,51
 700 367 700 367 848 367 c 0,52,53
 980 367 980 367 1088 434 c 1,54,-1
 1134 330 l 1,55,56
 1004 247 1004 247 838 247 c 0,34,35
EndSplineSet
EndChar

StartChar: ordfeminine
Encoding: 170 170 108
Width: 1050
Flags: W
LayerCount: 2
Fore
SplineSet
460 719 m 0,0,1
 522 719 522 719 579.5 748 c 128,-1,2
 637 777 637 777 676 822 c 1,3,-1
 676 986 l 1,4,-1
 582 986 l 2,5,6
 436 986 436 986 378 957.5 c 128,-1,7
 320 929 320 929 320 854 c 0,8,9
 320 789 320 789 356 754 c 128,-1,10
 392 719 392 719 460 719 c 0,0,1
727 599 m 1,11,-1
 700 724 l 1,12,13
 590 584 590 584 425 584 c 0,14,15
 299 584 299 584 217 649.5 c 128,-1,16
 135 715 135 715 135 837 c 0,17,18
 135 977 135 977 229 1038 c 128,-1,19
 323 1099 323 1099 530 1099 c 2,20,-1
 677 1099 l 1,21,-1
 677 1155 l 2,22,23
 677 1338 677 1338 486 1338 c 0,24,25
 372 1338 372 1338 223 1283 c 1,26,-1
 182 1414 l 1,27,28
 343 1477 343 1477 495 1477 c 0,29,30
 573 1477 573 1477 637.5 1459 c 128,-1,31
 702 1441 702 1441 755.5 1402.5 c 128,-1,32
 809 1364 809 1364 839 1297 c 128,-1,33
 869 1230 869 1230 869 1139 c 2,34,-1
 869 599 l 1,35,-1
 727 599 l 1,11,-1
EndSplineSet
EndChar

StartChar: guillemotleft
Encoding: 171 171 109
Width: 982
Flags: W
LayerCount: 2
Fore
SplineSet
370 138 m 1,0,-1
 68 552 l 1,1,-1
 373 970 l 1,2,-1
 549 970 l 1,3,-1
 281 555 l 1,4,-1
 543 138 l 1,5,-1
 370 138 l 1,0,-1
764 138 m 1,6,-1
 462 552 l 1,7,-1
 766 970 l 1,8,-1
 942 970 l 1,9,-1
 675 555 l 1,10,-1
 937 138 l 1,11,-1
 764 138 l 1,6,-1
EndSplineSet
EndChar

StartChar: logicalnot
Encoding: 172 172 110
Width: 1174
Flags: W
LayerCount: 2
Fore
SplineSet
905 251 m 1,0,-1
 905 646 l 1,1,-1
 94 646 l 1,2,-1
 94 818 l 1,3,-1
 1075 818 l 1,4,-1
 1075 251 l 1,5,-1
 905 251 l 1,0,-1
EndSplineSet
EndChar

StartChar: uni00AD
Encoding: 173 173 111
Width: 797
Flags: W
LayerCount: 2
Fore
SplineSet
87 303 m 1,0,-1
 87 485 l 1,1,-1
 746 485 l 1,2,-1
 746 303 l 1,3,-1
 87 303 l 1,0,-1
EndSplineSet
EndChar

StartChar: registered
Encoding: 174 174 112
Width: 1670
Flags: W
LayerCount: 2
Fore
SplineSet
834 -17 m 0,0,1
 684 -17 684 -17 546 36.5 c 128,-1,2
 408 90 408 90 301.5 186 c 128,-1,3
 195 282 195 282 131.5 426.5 c 128,-1,4
 68 571 68 571 68 742 c 128,-1,5
 68 913 68 913 131.5 1058 c 128,-1,6
 195 1203 195 1203 301 1299 c 128,-1,7
 407 1395 407 1395 545 1448.5 c 128,-1,8
 683 1502 683 1502 833 1502 c 0,9,10
 984 1502 984 1502 1122.5 1448 c 128,-1,11
 1261 1394 1261 1394 1368 1298 c 128,-1,12
 1475 1202 1475 1202 1539 1057 c 128,-1,13
 1603 912 1603 912 1603 742 c 0,14,15
 1603 571 1603 571 1539.5 426.5 c 128,-1,16
 1476 282 1476 282 1369 186 c 128,-1,17
 1262 90 1262 90 1123.5 36.5 c 128,-1,18
 985 -17 985 -17 834 -17 c 0,0,1
834 87 m 0,19,20
 1011 87 1011 87 1158 168 c 128,-1,21
 1305 249 1305 249 1393 399.5 c 128,-1,22
 1481 550 1481 550 1481 741 c 128,-1,23
 1481 932 1481 932 1393 1083 c 128,-1,24
 1305 1234 1305 1234 1157.5 1315.5 c 128,-1,25
 1010 1397 1010 1397 833 1397 c 0,26,27
 702 1397 702 1397 584 1349 c 128,-1,28
 466 1301 466 1301 379 1216.5 c 128,-1,29
 292 1132 292 1132 241 1008.5 c 128,-1,30
 190 885 190 885 190 742 c 0,31,32
 190 551 190 551 277.5 400 c 128,-1,33
 365 249 365 249 511.5 168 c 128,-1,34
 658 87 658 87 834 87 c 0,19,20
671 822 m 1,35,-1
 838 822 l 2,36,37
 947 822 947 822 993 852 c 128,-1,38
 1039 882 1039 882 1039 964 c 0,39,40
 1039 1001 1039 1001 1030.5 1025.5 c 128,-1,41
 1022 1050 1022 1050 1007 1064.5 c 128,-1,42
 992 1079 992 1079 962.5 1086.5 c 128,-1,43
 933 1094 933 1094 901 1096.5 c 128,-1,44
 869 1099 869 1099 817 1099 c 2,45,-1
 671 1099 l 1,46,-1
 671 822 l 1,35,-1
528 277 m 1,47,-1
 528 1223 l 1,48,-1
 848 1223 l 2,49,50
 1014 1223 1014 1223 1097 1162 c 128,-1,51
 1180 1101 1180 1101 1180 968 c 0,52,53
 1180 862 1180 862 1132.5 799.5 c 128,-1,54
 1085 737 1085 737 982 717 c 1,55,56
 1000 693 1000 693 1059.5 583 c 128,-1,57
 1119 473 1119 473 1170 375 c 2,58,-1
 1220 277 l 1,59,-1
 1061 277 l 1,60,61
 865 674 865 674 842 697 c 1,62,-1
 671 697 l 1,63,-1
 671 277 l 1,64,-1
 528 277 l 1,47,-1
EndSplineSet
EndChar

StartChar: macron
Encoding: 175 175 113
Width: 929
Flags: W
LayerCount: 2
Fore
SplineSet
133 1310 m 1,0,-1
 133 1460 l 1,1,-1
 786 1460 l 1,2,-1
 786 1310 l 1,3,-1
 133 1310 l 1,0,-1
EndSplineSet
EndChar

StartChar: degree
Encoding: 176 176 114
Width: 789
Flags: W
LayerCount: 2
Fore
SplineSet
395 895 m 128,-1,1
 260 895 260 895 173.5 981 c 128,-1,2
 87 1067 87 1067 87 1192 c 0,3,4
 87 1316 87 1316 173.5 1399 c 128,-1,5
 260 1482 260 1482 395 1482 c 128,-1,6
 530 1482 530 1482 617 1399 c 128,-1,7
 704 1316 704 1316 704 1192 c 0,8,9
 704 1069 704 1069 617 982 c 128,-1,0
 530 895 530 895 395 895 c 128,-1,1
395 1019 m 128,-1,11
 465 1019 465 1019 513.5 1066.5 c 128,-1,12
 562 1114 562 1114 562 1191 c 0,13,14
 562 1267 562 1267 513.5 1313.5 c 128,-1,15
 465 1360 465 1360 396 1360 c 0,16,17
 326 1360 326 1360 277 1313.5 c 128,-1,18
 228 1267 228 1267 228 1191 c 0,19,20
 228 1114 228 1114 276.5 1066.5 c 128,-1,10
 325 1019 325 1019 395 1019 c 128,-1,11
EndSplineSet
EndChar

StartChar: plusminus
Encoding: 177 177 115
Width: 1218
Flags: W
LayerCount: 2
Fore
SplineSet
519 238 m 1,0,-1
 519 612 l 1,1,-1
 151 612 l 1,2,-1
 151 785 l 1,3,-1
 519 785 l 1,4,-1
 519 1150 l 1,5,-1
 692 1150 l 1,6,-1
 692 785 l 1,7,-1
 1057 785 l 1,8,-1
 1057 612 l 1,9,-1
 692 612 l 1,10,-1
 692 238 l 1,11,-1
 519 238 l 1,0,-1
1076 0 m 1,12,-1
 142 0 l 1,13,-1
 142 159 l 1,14,-1
 1076 159 l 1,15,-1
 1076 0 l 1,12,-1
EndSplineSet
EndChar

StartChar: uni00B2
Encoding: 178 178 116
Width: 744
Flags: W
LayerCount: 2
Fore
SplineSet
636 600 m 1,0,-1
 95 600 l 1,1,-1
 95 732 l 1,2,3
 109 746 109 746 185 814.5 c 128,-1,4
 261 883 261 883 322 940.5 c 128,-1,5
 383 998 383 998 436.5 1070 c 128,-1,6
 490 1142 490 1142 490 1187 c 0,7,8
 490 1247 490 1247 451 1281 c 128,-1,9
 412 1315 412 1315 359 1315 c 0,10,11
 302 1315 302 1315 247.5 1289.5 c 128,-1,12
 193 1264 193 1264 157 1215 c 1,13,-1
 80 1320 l 1,14,15
 123 1387 123 1387 200 1423.5 c 128,-1,16
 277 1460 277 1460 370 1460 c 0,17,18
 485 1460 485 1460 569 1388 c 128,-1,19
 653 1316 653 1316 653 1194 c 0,20,21
 653 1143 653 1143 637 1094.5 c 128,-1,22
 621 1046 621 1046 600 1010.5 c 128,-1,23
 579 975 579 975 534 927.5 c 128,-1,24
 489 880 489 880 456.5 850.5 c 128,-1,25
 424 821 424 821 360 766 c 0,26,27
 352 759 352 759 347.5 755.5 c 128,-1,28
 343 752 343 752 336.5 746 c 128,-1,29
 330 740 330 740 324 735 c 1,30,-1
 649 735 l 1,31,-1
 636 600 l 1,0,-1
EndSplineSet
EndChar

StartChar: uni00B3
Encoding: 179 179 117
Width: 759
Flags: W
LayerCount: 2
Fore
SplineSet
393 594 m 0,0,1
 325 594 325 594 255.5 615 c 128,-1,2
 186 636 186 636 137 677 c 1,3,-1
 191 798 l 1,4,5
 223 768 223 768 281.5 748.5 c 128,-1,6
 340 729 340 729 388 729 c 0,7,8
 451 729 451 729 487.5 762 c 128,-1,9
 524 795 524 795 524 860 c 0,10,11
 524 922 524 922 475 954.5 c 128,-1,12
 426 987 426 987 342 987 c 1,13,-1
 262 986 l 1,14,-1
 262 1122 l 1,15,-1
 342 1122 l 2,16,17
 419 1122 419 1122 459 1149.5 c 128,-1,18
 499 1177 499 1177 499 1229 c 0,19,20
 499 1277 499 1277 470 1305 c 128,-1,21
 441 1333 441 1333 389 1333 c 0,22,23
 339 1333 339 1333 283 1314 c 128,-1,24
 227 1295 227 1295 196 1270 c 1,25,-1
 141 1377 l 1,26,27
 188 1420 188 1420 256.5 1444 c 128,-1,28
 325 1468 325 1468 397 1468 c 0,29,30
 507 1468 507 1468 583 1407 c 128,-1,31
 659 1346 659 1346 659 1230 c 1,32,33
 657 1104 657 1104 536 1062 c 1,34,35
 600 1036 600 1036 639 981.5 c 128,-1,36
 678 927 678 927 678 858 c 0,37,38
 678 735 678 735 596 664.5 c 128,-1,39
 514 594 514 594 393 594 c 0,0,1
EndSplineSet
EndChar

StartChar: acute
Encoding: 180 180 118
Width: 585
Flags: W
LayerCount: 2
Fore
SplineSet
149 1058 m 1,0,-1
 327 1460 l 1,1,-1
 596 1460 l 1,2,-1
 287 1058 l 1,3,-1
 149 1058 l 1,0,-1
EndSplineSet
EndChar

StartChar: uni00B5
Encoding: 181 181 119
Width: 1230
Flags: W
LayerCount: 2
Fore
SplineSet
914 18 m 1,0,-1
 891 218 l 1,1,2
 845 115 845 115 765.5 57.5 c 128,-1,3
 686 0 686 0 552 0 c 0,4,5
 381 0 381 0 284.5 112 c 128,-1,6
 188 224 188 224 188 430 c 2,7,-1
 188 1076 l 1,8,-1
 412 1076 l 1,9,-1
 412 448 l 2,10,11
 412 307 412 307 455.5 238.5 c 128,-1,12
 499 170 499 170 605 170 c 0,13,14
 734 170 734 170 804.5 280 c 128,-1,15
 875 390 875 390 875 547 c 2,16,-1
 875 1076 l 1,17,-1
 1099 1076 l 1,18,-1
 1099 18 l 1,19,-1
 914 18 l 1,0,-1
EndSplineSet
EndChar

StartChar: paragraph
Encoding: 182 182 120
Width: 1090
Flags: W
LayerCount: 2
Fore
SplineSet
443 -50 m 1,0,-1
 443 841 l 1,1,2
 272 841 272 841 178 930 c 128,-1,3
 84 1019 84 1019 84 1161 c 0,4,5
 84 1322 84 1322 202.5 1407 c 128,-1,6
 321 1492 321 1492 547 1492 c 2,7,-1
 993 1492 l 1,8,-1
 993 1338 l 1,9,-1
 916 1338 l 1,10,-1
 916 -50 l 1,11,-1
 763 -50 l 1,12,-1
 763 1338 l 1,13,-1
 595 1338 l 1,14,-1
 595 -50 l 1,15,-1
 443 -50 l 1,0,-1
EndSplineSet
EndChar

StartChar: periodcentered
Encoding: 183 183 121
Width: 405
Flags: W
LayerCount: 2
Fore
SplineSet
284 558 m 1,0,-1
 116 558 l 1,1,-1
 116 721 l 1,2,-1
 284 721 l 1,3,-1
 284 558 l 1,0,-1
EndSplineSet
EndChar

StartChar: cedilla
Encoding: 184 184 122
Width: 550
Flags: W
LayerCount: 2
Fore
SplineSet
83 -398 m 1,0,-1
 192 1 l 1,1,-1
 318 1 l 1,2,-1
 269 -398 l 1,3,-1
 83 -398 l 1,0,-1
EndSplineSet
EndChar

StartChar: uni00B9
Encoding: 185 185 123
Width: 732
Flags: W
LayerCount: 2
Fore
SplineSet
165 615 m 1,0,-1
 165 761 l 1,1,-1
 319 761 l 1,2,-1
 319 1283 l 1,3,4
 292 1268 292 1268 228.5 1240.5 c 128,-1,5
 165 1213 165 1213 152 1210 c 1,6,-1
 152 1367 l 1,7,8
 164 1369 164 1369 257 1417 c 128,-1,9
 350 1465 350 1465 359 1474 c 1,10,-1
 503 1473 l 1,11,-1
 503 761 l 1,12,-1
 652 761 l 1,13,-1
 652 615 l 1,14,-1
 165 615 l 1,0,-1
EndSplineSet
EndChar

StartChar: ordmasculine
Encoding: 186 186 124
Width: 844
Flags: W
LayerCount: 2
Fore
SplineSet
421 1500 m 0,0,1
 593 1500 593 1500 685 1390.5 c 128,-1,2
 777 1281 777 1281 777 1105 c 0,3,4
 777 938 777 938 679.5 826.5 c 128,-1,5
 582 715 582 715 421 715 c 0,6,7
 253 715 253 715 159 824.5 c 128,-1,8
 65 934 65 934 65 1105 c 0,9,10
 65 1279 65 1279 159 1389.5 c 128,-1,11
 253 1500 253 1500 421 1500 c 0,0,1
421 1356 m 0,12,13
 333 1356 333 1356 287.5 1292.5 c 128,-1,14
 242 1229 242 1229 242 1105 c 0,15,16
 242 859 242 859 421 859 c 0,17,18
 607 859 607 859 607 1102 c 0,19,20
 607 1226 607 1226 559.5 1291 c 128,-1,21
 512 1356 512 1356 421 1356 c 0,12,13
EndSplineSet
EndChar

StartChar: guillemotright
Encoding: 187 187 125
Width: 1029
Flags: W
LayerCount: 2
Fore
SplineSet
278 970 m 1,0,-1
 580 556 l 1,1,-1
 276 138 l 1,2,-1
 101 138 l 1,3,-1
 368 553 l 1,4,-1
 105 970 l 1,5,-1
 278 970 l 1,0,-1
664 970 m 1,6,-1
 967 556 l 1,7,-1
 661 138 l 1,8,-1
 488 138 l 1,9,-1
 753 553 l 1,10,-1
 493 970 l 1,11,-1
 664 970 l 1,6,-1
EndSplineSet
EndChar

StartChar: onequarter
Encoding: 188 188 126
Width: 1581
Flags: W
LayerCount: 2
Fore
SplineSet
289 0 m 1,0,-1
 1247 1460 l 1,1,-1
 1423 1460 l 1,2,-1
 470 0 l 1,3,-1
 289 0 l 1,0,-1
77 584 m 1,4,-1
 77 725 l 1,5,-1
 223 725 l 1,6,-1
 223 1284 l 1,7,8
 197 1270 197 1270 136.5 1242.5 c 128,-1,9
 76 1215 76 1215 63 1211 c 1,10,-1
 63 1353 l 1,11,12
 99 1368 99 1368 168.5 1405 c 128,-1,13
 238 1442 238 1442 263 1460 c 1,14,-1
 398 1460 l 1,15,-1
 398 725 l 1,16,-1
 535 725 l 1,17,-1
 535 584 l 1,18,-1
 77 584 l 1,4,-1
1311 0 m 1,19,-1
 1311 180 l 1,20,-1
 927 180 l 1,21,-1
 927 302 l 1,22,-1
 1301 848 l 1,23,-1
 1463 848 l 1,24,-1
 1463 305 l 1,25,-1
 1576 305 l 1,26,-1
 1571 180 l 1,27,-1
 1463 180 l 1,28,-1
 1463 0 l 1,29,-1
 1311 0 l 1,19,-1
1094 305 m 1,30,-1
 1311 305 l 1,31,-1
 1311 651 l 1,32,-1
 1094 305 l 1,30,-1
EndSplineSet
EndChar

StartChar: onehalf
Encoding: 189 189 127
Width: 1647
Flags: W
LayerCount: 2
Fore
SplineSet
289 0 m 1,0,-1
 1247 1460 l 1,1,-1
 1423 1460 l 1,2,-1
 470 0 l 1,3,-1
 289 0 l 1,0,-1
77 584 m 1,4,-1
 77 725 l 1,5,-1
 223 725 l 1,6,-1
 223 1284 l 1,7,8
 197 1270 197 1270 136.5 1242.5 c 128,-1,9
 76 1215 76 1215 63 1211 c 1,10,-1
 63 1353 l 1,11,12
 99 1368 99 1368 168.5 1405 c 128,-1,13
 238 1442 238 1442 263 1460 c 1,14,-1
 398 1460 l 1,15,-1
 398 725 l 1,16,-1
 535 725 l 1,17,-1
 535 584 l 1,18,-1
 77 584 l 1,4,-1
1049 -20 m 1,19,-1
 1049 112 l 1,20,21
 1063 126 1063 126 1139 194.5 c 128,-1,22
 1215 263 1215 263 1276 320.5 c 128,-1,23
 1337 378 1337 378 1390.5 450 c 128,-1,24
 1444 522 1444 522 1444 567 c 0,25,26
 1444 627 1444 627 1405 661 c 128,-1,27
 1366 695 1366 695 1313 695 c 0,28,29
 1256 695 1256 695 1201.5 669.5 c 128,-1,30
 1147 644 1147 644 1111 595 c 1,31,-1
 1034 700 l 1,32,33
 1077 767 1077 767 1154 803.5 c 128,-1,34
 1231 840 1231 840 1324 840 c 0,35,36
 1439 840 1439 840 1523 768 c 128,-1,37
 1607 696 1607 696 1607 574 c 0,38,39
 1607 523 1607 523 1591 474.5 c 128,-1,40
 1575 426 1575 426 1554 390.5 c 128,-1,41
 1533 355 1533 355 1488 307.5 c 128,-1,42
 1443 260 1443 260 1410.5 230.5 c 128,-1,43
 1378 201 1378 201 1314 146 c 0,44,45
 1290 125 1290 125 1278 115 c 1,46,-1
 1603 115 l 1,47,-1
 1590 -20 l 1,48,-1
 1049 -20 l 1,19,-1
EndSplineSet
EndChar

StartChar: threequarters
Encoding: 190 190 128
Width: 1569
Flags: W
LayerCount: 2
Fore
SplineSet
289 0 m 1,0,-1
 1247 1460 l 1,1,-1
 1423 1460 l 1,2,-1
 470 0 l 1,3,-1
 289 0 l 1,0,-1
77 584 m 1,4,-1
 77 725 l 1,5,-1
 223 725 l 1,6,-1
 223 1284 l 1,7,8
 197 1270 197 1270 136.5 1242.5 c 128,-1,9
 76 1215 76 1215 63 1211 c 1,10,-1
 63 1353 l 1,11,12
 99 1368 99 1368 168.5 1405 c 128,-1,13
 238 1442 238 1442 263 1460 c 1,14,-1
 398 1460 l 1,15,-1
 398 725 l 1,16,-1
 535 725 l 1,17,-1
 535 584 l 1,18,-1
 77 584 l 1,4,-1
1311 0 m 1,19,-1
 1311 180 l 1,20,-1
 927 180 l 1,21,-1
 927 302 l 1,22,-1
 1301 848 l 1,23,-1
 1463 848 l 1,24,-1
 1463 305 l 1,25,-1
 1576 305 l 1,26,-1
 1571 180 l 1,27,-1
 1463 180 l 1,28,-1
 1463 0 l 1,29,-1
 1311 0 l 1,19,-1
1094 305 m 1,30,-1
 1311 305 l 1,31,-1
 1311 651 l 1,32,-1
 1094 305 l 1,30,-1
EndSplineSet
EndChar
